M48
;DRILL file {KiCad 5.0.2-bee76a0~70~ubuntu18.04.1} date vie 06 sep 2019 11:27:47 CEST
;FORMAT={-:-/ absolute / inch / decimal}
FMAT,2
INCH,TZ
T1C0.0145
T2C0.0393
T3C0.0394
T4C0.1259
%
G90
G05
T1
X4.9803Y-5.3969
X5.0047Y-5.3188
X5.0047Y-5.3583
X5.1181Y-5.3819
T2
X4.7463Y-5.6555
X4.7963Y-5.5555
X4.8463Y-5.6555
X4.8963Y-5.5555
X4.9463Y-5.6555
X4.9963Y-5.5555
X5.0463Y-5.6555
X5.0963Y-5.5555
T3
X6.1024Y-5.3575
X6.1024Y-5.4575
X6.1024Y-5.5575
X6.1024Y-5.6575
X6.1024Y-4.3819
X6.1024Y-4.4819
X6.1024Y-4.5819
X6.1024Y-4.6819
X5.9055Y-3.7402
X5.9055Y-3.8402
X6.0055Y-3.7402
X6.0055Y-3.8402
X6.1055Y-3.7402
X6.1055Y-3.8402
T4
X4.6963Y-5.9055
X5.1463Y-5.9055
T0
M30
