G04 #@! TF.GenerationSoftware,KiCad,Pcbnew,5.0.2-bee76a0~70~ubuntu18.04.1*
G04 #@! TF.CreationDate,2019-09-06T11:27:55+02:00*
G04 #@! TF.ProjectId,sensor_board,73656e73-6f72-45f6-926f-6172642e6b69,1.0*
G04 #@! TF.SameCoordinates,Original*
G04 #@! TF.FileFunction,Profile,NP*
%FSLAX46Y46*%
G04 Gerber Fmt 4.6, Leading zero omitted, Abs format (unit mm)*
G04 Created by KiCad (PCBNEW 5.0.2-bee76a0~70~ubuntu18.04.1) date vie 06 sep 2019 11:27:55 CEST*
%MOMM*%
%LPD*%
G01*
G04 APERTURE LIST*
%ADD10C,0.381000*%
G04 APERTURE END LIST*
D10*
X158000000Y-159000000D02*
X156000000Y-159000000D01*
X158000000Y-45000000D02*
X156000000Y-45000000D01*
X160000000Y-157000000D02*
G75*
G02X158000000Y-159000000I-2000000J0D01*
G01*
X156000000Y-159000000D02*
X117000000Y-159000000D01*
X160000000Y-47000000D02*
X160000000Y-157000000D01*
X115000000Y-47000000D02*
X115000000Y-157000000D01*
X156000000Y-45000000D02*
X117000000Y-45000000D01*
X158000000Y-45000000D02*
G75*
G02X160000000Y-47000000I0J-2000000D01*
G01*
X115000000Y-47000000D02*
G75*
G02X117000000Y-45000000I2000000J0D01*
G01*
X117000000Y-159000000D02*
G75*
G02X115000000Y-157000000I0J2000000D01*
G01*
X122200000Y-128600000D02*
X122200000Y-126600000D01*
X122200000Y-126600000D02*
X116700000Y-126600000D01*
X116700000Y-128600000D02*
X122200000Y-128600000D01*
X116700000Y-126600000D02*
X116700000Y-128600000D01*
X122200000Y-103500000D02*
X122200000Y-101500000D01*
X122200000Y-101500000D02*
X116700000Y-101500000D01*
X116700000Y-103500000D02*
X122200000Y-103500000D01*
X116700000Y-101500000D02*
X116700000Y-103500000D01*
X141700000Y-49400000D02*
X141700000Y-47400000D01*
X141700000Y-47400000D02*
X136200000Y-47400000D01*
X136200000Y-49400000D02*
X141700000Y-49400000D01*
X136200000Y-47400000D02*
X136200000Y-49400000D01*
X141700000Y-95000000D02*
X141700000Y-93000000D01*
X136200000Y-95000000D02*
X141700000Y-95000000D01*
X136200000Y-93000000D02*
X136200000Y-95000000D01*
X141700000Y-93000000D02*
X136200000Y-93000000D01*
M02*
