M48
;DRILL file {KiCad 5.0.2-bee76a0~70~ubuntu18.04.1} date vie 06 sep 2019 11:31:45 CEST
;FORMAT={-:-/ absolute / inch / decimal}
FMAT,2
INCH,TZ
T1C0.0145
T2C0.0276
T3C0.0300
T4C0.0315
T5C0.0393
T6C0.0394
T7C0.0590
T8C0.1259
%
G90
G05
T1
X4.0276Y-3.5276
T2
X4.0559Y-3.0472
X4.2559Y-3.0472
X4.0559Y-2.9449
X4.2559Y-2.9449
T3
X2.8543Y-2.2697
X2.8543Y-2.3697
X2.8543Y-2.4697
X2.8543Y-2.5697
X2.8543Y-2.6697
X2.8543Y-2.7697
X2.8543Y-2.8697
X2.8543Y-2.9697
X2.8543Y-3.0697
X2.8543Y-3.1697
X2.8543Y-3.2697
X2.8543Y-3.3697
X2.8543Y-3.4697
X2.8543Y-3.5697
X2.8543Y-3.6697
X3.8543Y-2.2697
X3.8543Y-2.3697
X3.8543Y-2.4697
X3.8543Y-2.5697
X3.8543Y-2.6697
X3.8543Y-2.7697
X3.8543Y-2.8697
X3.8543Y-2.9697
X3.8543Y-3.0697
X3.8543Y-3.1697
X3.8543Y-3.2697
X3.8543Y-3.3697
X3.8543Y-3.4697
X3.8543Y-3.5697
X3.8543Y-3.6697
T4
X2.8425Y-4.2874
X2.9409Y-4.2874
X2.8425Y-4.1575
X2.9409Y-4.1575
T5
X3.8762Y-4.2776
X3.9262Y-4.1776
X3.9762Y-4.2776
X4.0262Y-4.1776
X4.0762Y-4.2776
X4.1262Y-4.1776
X4.1762Y-4.2776
X4.2262Y-4.1776
T6
X4.1463Y-3.6469
X4.1463Y-3.7469
X4.1463Y-3.8469
X4.1463Y-3.9469
X4.0463Y-3.6469
X4.0463Y-3.7469
X4.0463Y-3.8469
X4.0463Y-3.9469
X4.2463Y-3.6469
X4.2463Y-3.7469
X4.2463Y-3.8469
X4.2463Y-3.9469
X4.2463Y-4.0469
T7
X3.334Y-4.3061
X3.5309Y-4.3061
T8
X3.8262Y-4.5276
X4.2762Y-4.5276
T0
M30
