G04 #@! TF.GenerationSoftware,KiCad,Pcbnew,5.0.2-bee76a0~70~ubuntu18.04.1*
G04 #@! TF.CreationDate,2019-09-06T11:31:54+02:00*
G04 #@! TF.ProjectId,respira_fiware,72657370-6972-4615-9f66-69776172652e,1.0*
G04 #@! TF.SameCoordinates,Original*
G04 #@! TF.FileFunction,Legend,Top*
G04 #@! TF.FilePolarity,Positive*
%FSLAX46Y46*%
G04 Gerber Fmt 4.6, Leading zero omitted, Abs format (unit mm)*
G04 Created by KiCad (PCBNEW 5.0.2-bee76a0~70~ubuntu18.04.1) date vie 06 sep 2019 11:31:54 CEST*
%MOMM*%
%LPD*%
G01*
G04 APERTURE LIST*
%ADD10C,0.304800*%
%ADD11C,0.381000*%
%ADD12C,0.120000*%
%ADD13C,0.203200*%
%ADD14C,0.200000*%
%ADD15C,0.152400*%
%ADD16C,0.150000*%
G04 APERTURE END LIST*
D10*
X98836000Y-118622476D02*
X98981142Y-118719238D01*
X99271428Y-118719238D01*
X99416571Y-118622476D01*
X99489142Y-118428952D01*
X99489142Y-118332190D01*
X99416571Y-118138666D01*
X99271428Y-118041904D01*
X99053714Y-118041904D01*
X98908571Y-117945142D01*
X98836000Y-117751619D01*
X98836000Y-117654857D01*
X98908571Y-117461333D01*
X99053714Y-117364571D01*
X99271428Y-117364571D01*
X99416571Y-117461333D01*
X100722857Y-118622476D02*
X100577714Y-118719238D01*
X100287428Y-118719238D01*
X100142285Y-118622476D01*
X100069714Y-118428952D01*
X100069714Y-117654857D01*
X100142285Y-117461333D01*
X100287428Y-117364571D01*
X100577714Y-117364571D01*
X100722857Y-117461333D01*
X100795428Y-117654857D01*
X100795428Y-117848380D01*
X100069714Y-118041904D01*
X101448571Y-117364571D02*
X101448571Y-118719238D01*
X101448571Y-117558095D02*
X101521142Y-117461333D01*
X101666285Y-117364571D01*
X101884000Y-117364571D01*
X102029142Y-117461333D01*
X102101714Y-117654857D01*
X102101714Y-118719238D01*
X102754857Y-118622476D02*
X102900000Y-118719238D01*
X103190285Y-118719238D01*
X103335428Y-118622476D01*
X103408000Y-118428952D01*
X103408000Y-118332190D01*
X103335428Y-118138666D01*
X103190285Y-118041904D01*
X102972571Y-118041904D01*
X102827428Y-117945142D01*
X102754857Y-117751619D01*
X102754857Y-117654857D01*
X102827428Y-117461333D01*
X102972571Y-117364571D01*
X103190285Y-117364571D01*
X103335428Y-117461333D01*
X104278857Y-118719238D02*
X104133714Y-118622476D01*
X104061142Y-118525714D01*
X103988571Y-118332190D01*
X103988571Y-117751619D01*
X104061142Y-117558095D01*
X104133714Y-117461333D01*
X104278857Y-117364571D01*
X104496571Y-117364571D01*
X104641714Y-117461333D01*
X104714285Y-117558095D01*
X104786857Y-117751619D01*
X104786857Y-118332190D01*
X104714285Y-118525714D01*
X104641714Y-118622476D01*
X104496571Y-118719238D01*
X104278857Y-118719238D01*
X105440000Y-118719238D02*
X105440000Y-117364571D01*
X105440000Y-117751619D02*
X105512571Y-117558095D01*
X105585142Y-117461333D01*
X105730285Y-117364571D01*
X105875428Y-117364571D01*
X106310857Y-118622476D02*
X106456000Y-118719238D01*
X106746285Y-118719238D01*
X106891428Y-118622476D01*
X106964000Y-118428952D01*
X106964000Y-118332190D01*
X106891428Y-118138666D01*
X106746285Y-118041904D01*
X106528571Y-118041904D01*
X106383428Y-117945142D01*
X106310857Y-117751619D01*
X106310857Y-117654857D01*
X106383428Y-117461333D01*
X106528571Y-117364571D01*
X106746285Y-117364571D01*
X106891428Y-117461333D01*
X88784000Y-117461142D02*
X88687238Y-117606285D01*
X88687238Y-117824000D01*
X88784000Y-118041714D01*
X88977523Y-118186857D01*
X89171047Y-118259428D01*
X89558095Y-118332000D01*
X89848380Y-118332000D01*
X90235428Y-118259428D01*
X90428952Y-118186857D01*
X90622476Y-118041714D01*
X90719238Y-117824000D01*
X90719238Y-117678857D01*
X90622476Y-117461142D01*
X90525714Y-117388571D01*
X89848380Y-117388571D01*
X89848380Y-117678857D01*
X90719238Y-116735428D02*
X88687238Y-116735428D01*
X90719238Y-115864571D01*
X88687238Y-115864571D01*
X90719238Y-115138857D02*
X88687238Y-115138857D01*
X88687238Y-114776000D01*
X88784000Y-114558285D01*
X88977523Y-114413142D01*
X89171047Y-114340571D01*
X89558095Y-114268000D01*
X89848380Y-114268000D01*
X90235428Y-114340571D01*
X90428952Y-114413142D01*
X90622476Y-114558285D01*
X90719238Y-114776000D01*
X90719238Y-115138857D01*
X83687238Y-117678857D02*
X83687238Y-118404571D01*
X84654857Y-118477142D01*
X84558095Y-118404571D01*
X84461333Y-118259428D01*
X84461333Y-117896571D01*
X84558095Y-117751428D01*
X84654857Y-117678857D01*
X84848380Y-117606285D01*
X85332190Y-117606285D01*
X85525714Y-117678857D01*
X85622476Y-117751428D01*
X85719238Y-117896571D01*
X85719238Y-118259428D01*
X85622476Y-118404571D01*
X85525714Y-118477142D01*
X85525714Y-116953142D02*
X85622476Y-116880571D01*
X85719238Y-116953142D01*
X85622476Y-117025714D01*
X85525714Y-116953142D01*
X85719238Y-116953142D01*
X83687238Y-115937142D02*
X83687238Y-115792000D01*
X83784000Y-115646857D01*
X83880761Y-115574285D01*
X84074285Y-115501714D01*
X84461333Y-115429142D01*
X84945142Y-115429142D01*
X85332190Y-115501714D01*
X85525714Y-115574285D01*
X85622476Y-115646857D01*
X85719238Y-115792000D01*
X85719238Y-115937142D01*
X85622476Y-116082285D01*
X85525714Y-116154857D01*
X85332190Y-116227428D01*
X84945142Y-116300000D01*
X84461333Y-116300000D01*
X84074285Y-116227428D01*
X83880761Y-116154857D01*
X83784000Y-116082285D01*
X83687238Y-115937142D01*
X83687238Y-114993714D02*
X85719238Y-114485714D01*
X83687238Y-113977714D01*
X105042838Y-65783428D02*
X104075219Y-66291428D01*
X105042838Y-66654285D02*
X103010838Y-66654285D01*
X103010838Y-66073714D01*
X103107600Y-65928571D01*
X103204361Y-65856000D01*
X103397885Y-65783428D01*
X103688171Y-65783428D01*
X103881695Y-65856000D01*
X103978457Y-65928571D01*
X104075219Y-66073714D01*
X104075219Y-66654285D01*
X103978457Y-65130285D02*
X103978457Y-64622285D01*
X105042838Y-64404571D02*
X105042838Y-65130285D01*
X103010838Y-65130285D01*
X103010838Y-64404571D01*
X104946076Y-63824000D02*
X105042838Y-63606285D01*
X105042838Y-63243428D01*
X104946076Y-63098285D01*
X104849314Y-63025714D01*
X104655790Y-62953142D01*
X104462266Y-62953142D01*
X104268742Y-63025714D01*
X104171980Y-63098285D01*
X104075219Y-63243428D01*
X103978457Y-63533714D01*
X103881695Y-63678857D01*
X103784933Y-63751428D01*
X103591409Y-63824000D01*
X103397885Y-63824000D01*
X103204361Y-63751428D01*
X103107600Y-63678857D01*
X103010838Y-63533714D01*
X103010838Y-63170857D01*
X103107600Y-62953142D01*
X105042838Y-62300000D02*
X103010838Y-62300000D01*
X103010838Y-61719428D01*
X103107600Y-61574285D01*
X103204361Y-61501714D01*
X103397885Y-61429142D01*
X103688171Y-61429142D01*
X103881695Y-61501714D01*
X103978457Y-61574285D01*
X104075219Y-61719428D01*
X104075219Y-62300000D01*
X105042838Y-60776000D02*
X103010838Y-60776000D01*
X105042838Y-59179428D02*
X104075219Y-59687428D01*
X105042838Y-60050285D02*
X103010838Y-60050285D01*
X103010838Y-59469714D01*
X103107600Y-59324571D01*
X103204361Y-59252000D01*
X103397885Y-59179428D01*
X103688171Y-59179428D01*
X103881695Y-59252000D01*
X103978457Y-59324571D01*
X104075219Y-59469714D01*
X104075219Y-60050285D01*
X104462266Y-58598857D02*
X104462266Y-57873142D01*
X105042838Y-58744000D02*
X103010838Y-58236000D01*
X105042838Y-57728000D01*
X107331257Y-68758857D02*
X107331257Y-69266857D01*
X108395638Y-69266857D02*
X106363638Y-69266857D01*
X106363638Y-68541142D01*
X108395638Y-67960571D02*
X106363638Y-67960571D01*
X106363638Y-67380000D02*
X108395638Y-67017142D01*
X106944209Y-66726857D01*
X108395638Y-66436571D01*
X106363638Y-66073714D01*
X107815066Y-65565714D02*
X107815066Y-64840000D01*
X108395638Y-65710857D02*
X106363638Y-65202857D01*
X108395638Y-64694857D01*
X108395638Y-63316000D02*
X107428019Y-63824000D01*
X108395638Y-64186857D02*
X106363638Y-64186857D01*
X106363638Y-63606285D01*
X106460400Y-63461142D01*
X106557161Y-63388571D01*
X106750685Y-63316000D01*
X107040971Y-63316000D01*
X107234495Y-63388571D01*
X107331257Y-63461142D01*
X107428019Y-63606285D01*
X107428019Y-64186857D01*
X107331257Y-62662857D02*
X107331257Y-62154857D01*
X108395638Y-61937142D02*
X108395638Y-62662857D01*
X106363638Y-62662857D01*
X106363638Y-61937142D01*
X107040971Y-60268000D02*
X108395638Y-59905142D01*
X107040971Y-59542285D01*
X108202114Y-58961714D02*
X108298876Y-58889142D01*
X108395638Y-58961714D01*
X108298876Y-59034285D01*
X108202114Y-58961714D01*
X108395638Y-58961714D01*
X108395638Y-57437714D02*
X108395638Y-58308571D01*
X108395638Y-57873142D02*
X106363638Y-57873142D01*
X106653923Y-58018285D01*
X106847447Y-58163428D01*
X106944209Y-58308571D01*
X108202114Y-56784571D02*
X108298876Y-56712000D01*
X108395638Y-56784571D01*
X108298876Y-56857142D01*
X108202114Y-56784571D01*
X108395638Y-56784571D01*
X106363638Y-55768571D02*
X106363638Y-55623428D01*
X106460400Y-55478285D01*
X106557161Y-55405714D01*
X106750685Y-55333142D01*
X107137733Y-55260571D01*
X107621542Y-55260571D01*
X108008590Y-55333142D01*
X108202114Y-55405714D01*
X108298876Y-55478285D01*
X108395638Y-55623428D01*
X108395638Y-55768571D01*
X108298876Y-55913714D01*
X108202114Y-55986285D01*
X108008590Y-56058857D01*
X107621542Y-56131428D01*
X107137733Y-56131428D01*
X106750685Y-56058857D01*
X106557161Y-55986285D01*
X106460400Y-55913714D01*
X106363638Y-55768571D01*
D11*
G04 #@! TO.C,J1*
X92203800Y-105602700D02*
X82196200Y-105602700D01*
X92203800Y-111914600D02*
X82234300Y-111914600D01*
X92203800Y-113184600D02*
X82183500Y-113184600D01*
X92203800Y-105602700D02*
X92203800Y-113159200D01*
X82183500Y-113171900D02*
X82183500Y-105602700D01*
D12*
G04 #@! TO.C,C1*
X76070000Y-110270000D02*
X70830000Y-110270000D01*
X76070000Y-107530000D02*
X70830000Y-107530000D01*
X76070000Y-110270000D02*
X76070000Y-107530000D01*
X70830000Y-110270000D02*
X70830000Y-107530000D01*
G04 #@! TO.C,C2*
X70830000Y-106970000D02*
X70830000Y-104230000D01*
X76070000Y-106970000D02*
X76070000Y-104230000D01*
X76070000Y-104230000D02*
X70830000Y-104230000D01*
X76070000Y-106970000D02*
X70830000Y-106970000D01*
G04 #@! TO.C,J2*
X101446248Y-91302448D02*
X102776248Y-91302448D01*
X101446248Y-92632448D02*
X101446248Y-91302448D01*
X101446248Y-93902448D02*
X104106248Y-93902448D01*
X104106248Y-93902448D02*
X104106248Y-101582448D01*
X101446248Y-93902448D02*
X101446248Y-101582448D01*
X101446248Y-101582448D02*
X104106248Y-101582448D01*
G04 #@! TO.C,J3*
X103986248Y-101582448D02*
X106646248Y-101582448D01*
X103986248Y-93902448D02*
X103986248Y-101582448D01*
X106646248Y-93902448D02*
X106646248Y-101582448D01*
X103986248Y-93902448D02*
X106646248Y-93902448D01*
X103986248Y-92632448D02*
X103986248Y-91302448D01*
X103986248Y-91302448D02*
X105316248Y-91302448D01*
D13*
G04 #@! TO.C,J4*
X95280000Y-105000020D02*
X110520000Y-105000020D01*
X95280000Y-117999740D02*
X95280000Y-105000020D01*
X95280000Y-120000000D02*
X110520000Y-120000000D01*
X110520000Y-105000020D02*
X110520000Y-117999740D01*
D14*
X95280000Y-118010000D02*
X95280000Y-120000000D01*
X110520000Y-118010000D02*
X110520000Y-120000000D01*
D12*
G04 #@! TO.C,J5*
X106526248Y-93902448D02*
X109186248Y-93902448D01*
X106526248Y-93902448D02*
X106526248Y-104122448D01*
X106526248Y-104122448D02*
X109186248Y-104122448D01*
X109186248Y-93902448D02*
X109186248Y-104122448D01*
X109186248Y-91302448D02*
X109186248Y-92632448D01*
X107856248Y-91302448D02*
X109186248Y-91302448D01*
G04 #@! TO.C,R1*
X107480000Y-75720000D02*
X103640000Y-75720000D01*
X107480000Y-73880000D02*
X103640000Y-73880000D01*
G04 #@! TO.C,R2*
X107480000Y-76480000D02*
X103640000Y-76480000D01*
X107480000Y-78320000D02*
X103640000Y-78320000D01*
D14*
G04 #@! TO.C,U1*
X71230000Y-52570000D02*
X71230000Y-103370000D01*
X71230000Y-103370000D02*
X99170000Y-103370000D01*
X99170000Y-103370000D02*
X99170000Y-52570000D01*
X99170000Y-52570000D02*
X71230000Y-52570000D01*
X82660000Y-103370000D02*
X82660000Y-100830000D01*
X82660000Y-100830000D02*
X87740000Y-100830000D01*
X87740000Y-100830000D02*
X87740000Y-103370000D01*
X73770000Y-57650000D02*
X96630000Y-57650000D01*
G04 #@! TO.C,J1*
D15*
X86861333Y-106004523D02*
X86861333Y-106911666D01*
X86812952Y-107093095D01*
X86716190Y-107214047D01*
X86571047Y-107274523D01*
X86474285Y-107274523D01*
X87877333Y-107274523D02*
X87296761Y-107274523D01*
X87587047Y-107274523D02*
X87587047Y-106004523D01*
X87490285Y-106185952D01*
X87393523Y-106306904D01*
X87296761Y-106367380D01*
G04 #@! TO.C,C1*
D16*
X77233333Y-109457142D02*
X77185714Y-109504761D01*
X77042857Y-109552380D01*
X76947619Y-109552380D01*
X76804761Y-109504761D01*
X76709523Y-109409523D01*
X76661904Y-109314285D01*
X76614285Y-109123809D01*
X76614285Y-108980952D01*
X76661904Y-108790476D01*
X76709523Y-108695238D01*
X76804761Y-108600000D01*
X76947619Y-108552380D01*
X77042857Y-108552380D01*
X77185714Y-108600000D01*
X77233333Y-108647619D01*
X78185714Y-109552380D02*
X77614285Y-109552380D01*
X77900000Y-109552380D02*
X77900000Y-108552380D01*
X77804761Y-108695238D01*
X77709523Y-108790476D01*
X77614285Y-108838095D01*
G04 #@! TO.C,C2*
X77233333Y-106057142D02*
X77185714Y-106104761D01*
X77042857Y-106152380D01*
X76947619Y-106152380D01*
X76804761Y-106104761D01*
X76709523Y-106009523D01*
X76661904Y-105914285D01*
X76614285Y-105723809D01*
X76614285Y-105580952D01*
X76661904Y-105390476D01*
X76709523Y-105295238D01*
X76804761Y-105200000D01*
X76947619Y-105152380D01*
X77042857Y-105152380D01*
X77185714Y-105200000D01*
X77233333Y-105247619D01*
X77614285Y-105247619D02*
X77661904Y-105200000D01*
X77757142Y-105152380D01*
X77995238Y-105152380D01*
X78090476Y-105200000D01*
X78138095Y-105247619D01*
X78185714Y-105342857D01*
X78185714Y-105438095D01*
X78138095Y-105580952D01*
X77566666Y-106152380D01*
X78185714Y-106152380D01*
G04 #@! TO.C,J2*
X102442914Y-89754828D02*
X102442914Y-90469114D01*
X102395295Y-90611971D01*
X102300057Y-90707209D01*
X102157200Y-90754828D01*
X102061962Y-90754828D01*
X102871486Y-89850067D02*
X102919105Y-89802448D01*
X103014343Y-89754828D01*
X103252438Y-89754828D01*
X103347676Y-89802448D01*
X103395295Y-89850067D01*
X103442914Y-89945305D01*
X103442914Y-90040543D01*
X103395295Y-90183400D01*
X102823867Y-90754828D01*
X103442914Y-90754828D01*
G04 #@! TO.C,J3*
X104982914Y-89754828D02*
X104982914Y-90469114D01*
X104935295Y-90611971D01*
X104840057Y-90707209D01*
X104697200Y-90754828D01*
X104601962Y-90754828D01*
X105363867Y-89754828D02*
X105982914Y-89754828D01*
X105649581Y-90135781D01*
X105792438Y-90135781D01*
X105887676Y-90183400D01*
X105935295Y-90231019D01*
X105982914Y-90326257D01*
X105982914Y-90564352D01*
X105935295Y-90659590D01*
X105887676Y-90707209D01*
X105792438Y-90754828D01*
X105506724Y-90754828D01*
X105411486Y-90707209D01*
X105363867Y-90659590D01*
G04 #@! TO.C,J5*
X107611314Y-89597028D02*
X107611314Y-90311314D01*
X107563695Y-90454171D01*
X107468457Y-90549409D01*
X107325600Y-90597028D01*
X107230362Y-90597028D01*
X108563695Y-89597028D02*
X108087505Y-89597028D01*
X108039886Y-90073219D01*
X108087505Y-90025600D01*
X108182743Y-89977981D01*
X108420838Y-89977981D01*
X108516076Y-90025600D01*
X108563695Y-90073219D01*
X108611314Y-90168457D01*
X108611314Y-90406552D01*
X108563695Y-90501790D01*
X108516076Y-90549409D01*
X108420838Y-90597028D01*
X108182743Y-90597028D01*
X108087505Y-90549409D01*
X108039886Y-90501790D01*
G04 #@! TO.C,R1*
X100733333Y-75252380D02*
X100400000Y-74776190D01*
X100161904Y-75252380D02*
X100161904Y-74252380D01*
X100542857Y-74252380D01*
X100638095Y-74300000D01*
X100685714Y-74347619D01*
X100733333Y-74442857D01*
X100733333Y-74585714D01*
X100685714Y-74680952D01*
X100638095Y-74728571D01*
X100542857Y-74776190D01*
X100161904Y-74776190D01*
X101685714Y-75252380D02*
X101114285Y-75252380D01*
X101400000Y-75252380D02*
X101400000Y-74252380D01*
X101304761Y-74395238D01*
X101209523Y-74490476D01*
X101114285Y-74538095D01*
G04 #@! TO.C,R2*
X100833333Y-77852380D02*
X100500000Y-77376190D01*
X100261904Y-77852380D02*
X100261904Y-76852380D01*
X100642857Y-76852380D01*
X100738095Y-76900000D01*
X100785714Y-76947619D01*
X100833333Y-77042857D01*
X100833333Y-77185714D01*
X100785714Y-77280952D01*
X100738095Y-77328571D01*
X100642857Y-77376190D01*
X100261904Y-77376190D01*
X101214285Y-76947619D02*
X101261904Y-76900000D01*
X101357142Y-76852380D01*
X101595238Y-76852380D01*
X101690476Y-76900000D01*
X101738095Y-76947619D01*
X101785714Y-77042857D01*
X101785714Y-77138095D01*
X101738095Y-77280952D01*
X101166666Y-77852380D01*
X101785714Y-77852380D01*
G04 #@! TO.C,U1*
X84438095Y-58372380D02*
X84438095Y-59181904D01*
X84485714Y-59277142D01*
X84533333Y-59324761D01*
X84628571Y-59372380D01*
X84819047Y-59372380D01*
X84914285Y-59324761D01*
X84961904Y-59277142D01*
X85009523Y-59181904D01*
X85009523Y-58372380D01*
X86009523Y-59372380D02*
X85438095Y-59372380D01*
X85723809Y-59372380D02*
X85723809Y-58372380D01*
X85628571Y-58515238D01*
X85533333Y-58610476D01*
X85438095Y-58658095D01*
G04 #@! TD*
M02*
