G04 #@! TF.GenerationSoftware,KiCad,Pcbnew,5.0.2-bee76a0~70~ubuntu18.04.1*
G04 #@! TF.CreationDate,2019-09-06T11:31:54+02:00*
G04 #@! TF.ProjectId,respira_fiware,72657370-6972-4615-9f66-69776172652e,1.0*
G04 #@! TF.SameCoordinates,Original*
G04 #@! TF.FileFunction,Copper,L4,Bot*
G04 #@! TF.FilePolarity,Positive*
%FSLAX46Y46*%
G04 Gerber Fmt 4.6, Leading zero omitted, Abs format (unit mm)*
G04 Created by KiCad (PCBNEW 5.0.2-bee76a0~70~ubuntu18.04.1) date vie 06 sep 2019 11:31:54 CEST*
%MOMM*%
%LPD*%
G01*
G04 APERTURE LIST*
G04 #@! TA.AperFunction,ComponentPad*
%ADD10C,3.810000*%
G04 #@! TD*
G04 #@! TA.AperFunction,ComponentPad*
%ADD11C,1.600000*%
G04 #@! TD*
G04 #@! TA.AperFunction,ComponentPad*
%ADD12O,1.700000X1.700000*%
G04 #@! TD*
G04 #@! TA.AperFunction,ComponentPad*
%ADD13R,1.700000X1.700000*%
G04 #@! TD*
G04 #@! TA.AperFunction,ComponentPad*
%ADD14O,1.496060X1.496060*%
G04 #@! TD*
G04 #@! TA.AperFunction,ComponentPad*
%ADD15C,1.400000*%
G04 #@! TD*
G04 #@! TA.AperFunction,ComponentPad*
%ADD16O,1.400000X1.400000*%
G04 #@! TD*
G04 #@! TA.AperFunction,ComponentPad*
%ADD17C,1.524000*%
G04 #@! TD*
G04 #@! TA.AperFunction,ViaPad*
%ADD18C,0.876300*%
G04 #@! TD*
G04 #@! TA.AperFunction,Conductor*
%ADD19C,1.270000*%
G04 #@! TD*
G04 #@! TA.AperFunction,Conductor*
%ADD20C,1.016000*%
G04 #@! TD*
G04 #@! TA.AperFunction,Conductor*
%ADD21C,0.508000*%
G04 #@! TD*
G04 #@! TA.AperFunction,Conductor*
%ADD22C,0.254000*%
G04 #@! TD*
G04 APERTURE END LIST*
D10*
G04 #@! TO.P,J1,1*
G04 #@! TO.N,+5V*
X84682860Y-109374600D03*
G04 #@! TO.P,J1,2*
G04 #@! TO.N,GND*
X89684120Y-109374600D03*
G04 #@! TD*
D11*
G04 #@! TO.P,C1,1*
G04 #@! TO.N,+5V*
X74700000Y-108900000D03*
G04 #@! TO.P,C1,2*
G04 #@! TO.N,GND*
X72200000Y-108900000D03*
G04 #@! TD*
G04 #@! TO.P,C2,2*
G04 #@! TO.N,GND*
X72200000Y-105600000D03*
G04 #@! TO.P,C2,1*
G04 #@! TO.N,+5V*
X74700000Y-105600000D03*
G04 #@! TD*
D12*
G04 #@! TO.P,J2,4*
G04 #@! TO.N,/RXD2*
X102776248Y-100252448D03*
G04 #@! TO.P,J2,3*
G04 #@! TO.N,/TXD2*
X102776248Y-97712448D03*
G04 #@! TO.P,J2,2*
G04 #@! TO.N,GND*
X102776248Y-95172448D03*
D13*
G04 #@! TO.P,J2,1*
G04 #@! TO.N,+5V*
X102776248Y-92632448D03*
G04 #@! TD*
G04 #@! TO.P,J3,1*
G04 #@! TO.N,Net-(J3-Pad1)*
X105316248Y-92632448D03*
D12*
G04 #@! TO.P,J3,2*
G04 #@! TO.N,/I2C_SCL*
X105316248Y-95172448D03*
G04 #@! TO.P,J3,3*
G04 #@! TO.N,/I2C_SDA*
X105316248Y-97712448D03*
G04 #@! TO.P,J3,4*
G04 #@! TO.N,GND*
X105316248Y-100252448D03*
G04 #@! TD*
D14*
G04 #@! TO.P,J4,8*
G04 #@! TO.N,+5V*
X107345000Y-106110000D03*
G04 #@! TO.P,J4,7*
G04 #@! TO.N,+3V3*
X106075000Y-108650000D03*
G04 #@! TO.P,J4,6*
G04 #@! TO.N,/I2C_SDA*
X104805000Y-106110000D03*
G04 #@! TO.P,J4,4*
G04 #@! TO.N,/RXD2*
X102265000Y-106110000D03*
G04 #@! TO.P,J4,2*
G04 #@! TO.N,GND*
X99725000Y-106110000D03*
G04 #@! TO.P,J4,5*
G04 #@! TO.N,/I2C_SCL*
X103535000Y-108650000D03*
G04 #@! TO.P,J4,3*
G04 #@! TO.N,/TXD2*
X100995000Y-108650000D03*
G04 #@! TO.P,J4,1*
G04 #@! TO.N,GND*
X98455000Y-108650000D03*
G04 #@! TD*
D13*
G04 #@! TO.P,J5,1*
G04 #@! TO.N,+5V*
X107856248Y-92632448D03*
D12*
G04 #@! TO.P,J5,2*
G04 #@! TO.N,/I2C_SDA*
X107856248Y-95172448D03*
G04 #@! TO.P,J5,3*
G04 #@! TO.N,/I2C_SCL*
X107856248Y-97712448D03*
G04 #@! TO.P,J5,4*
G04 #@! TO.N,GND*
X107856248Y-100252448D03*
G04 #@! TO.P,J5,5*
X107856248Y-102792448D03*
G04 #@! TD*
D15*
G04 #@! TO.P,R1,1*
G04 #@! TO.N,+3V3*
X108100000Y-74800000D03*
D16*
G04 #@! TO.P,R1,2*
G04 #@! TO.N,/I2C_SCL*
X103020000Y-74800000D03*
G04 #@! TD*
G04 #@! TO.P,R2,2*
G04 #@! TO.N,/I2C_SDA*
X103020000Y-77400000D03*
D15*
G04 #@! TO.P,R2,1*
G04 #@! TO.N,+3V3*
X108100000Y-77400000D03*
G04 #@! TD*
D17*
G04 #@! TO.P,U1,1*
G04 #@! TO.N,Net-(U1-Pad1)*
X72500000Y-57650000D03*
G04 #@! TO.P,U1,2*
G04 #@! TO.N,Net-(U1-Pad2)*
X72500000Y-60190000D03*
G04 #@! TO.P,U1,3*
G04 #@! TO.N,Net-(U1-Pad3)*
X72500000Y-62730000D03*
G04 #@! TO.P,U1,4*
G04 #@! TO.N,Net-(U1-Pad4)*
X72500000Y-65270000D03*
G04 #@! TO.P,U1,5*
G04 #@! TO.N,Net-(U1-Pad5)*
X72500000Y-67810000D03*
G04 #@! TO.P,U1,6*
G04 #@! TO.N,Net-(U1-Pad6)*
X72500000Y-70350000D03*
G04 #@! TO.P,U1,7*
G04 #@! TO.N,Net-(U1-Pad7)*
X72500000Y-72890000D03*
G04 #@! TO.P,U1,8*
G04 #@! TO.N,Net-(U1-Pad8)*
X72500000Y-75430000D03*
G04 #@! TO.P,U1,9*
G04 #@! TO.N,Net-(U1-Pad9)*
X72500000Y-77970000D03*
G04 #@! TO.P,U1,10*
G04 #@! TO.N,Net-(U1-Pad10)*
X72500000Y-80510000D03*
G04 #@! TO.P,U1,11*
G04 #@! TO.N,Net-(U1-Pad11)*
X72500000Y-83050000D03*
G04 #@! TO.P,U1,12*
G04 #@! TO.N,Net-(U1-Pad12)*
X72500000Y-85590000D03*
G04 #@! TO.P,U1,13*
G04 #@! TO.N,Net-(U1-Pad13)*
X72500000Y-88130000D03*
G04 #@! TO.P,U1,14*
G04 #@! TO.N,GND*
X72500000Y-90670000D03*
G04 #@! TO.P,U1,15*
G04 #@! TO.N,+5V*
X72500000Y-93210000D03*
G04 #@! TO.P,U1,16*
G04 #@! TO.N,+3V3*
X97900000Y-93210000D03*
G04 #@! TO.P,U1,17*
G04 #@! TO.N,GND*
X97900000Y-90670000D03*
G04 #@! TO.P,U1,18*
G04 #@! TO.N,Net-(U1-Pad18)*
X97900000Y-88130000D03*
G04 #@! TO.P,U1,19*
G04 #@! TO.N,Net-(U1-Pad19)*
X97900000Y-85590000D03*
G04 #@! TO.P,U1,20*
G04 #@! TO.N,Net-(U1-Pad20)*
X97900000Y-83050000D03*
G04 #@! TO.P,U1,21*
G04 #@! TO.N,/RXD2*
X97900000Y-80510000D03*
G04 #@! TO.P,U1,22*
G04 #@! TO.N,/TXD2*
X97900000Y-77970000D03*
G04 #@! TO.P,U1,23*
G04 #@! TO.N,Net-(U1-Pad23)*
X97900000Y-75430000D03*
G04 #@! TO.P,U1,24*
G04 #@! TO.N,Net-(U1-Pad24)*
X97900000Y-72890000D03*
G04 #@! TO.P,U1,25*
G04 #@! TO.N,Net-(U1-Pad25)*
X97900000Y-70350000D03*
G04 #@! TO.P,U1,26*
G04 #@! TO.N,/I2C_SDA*
X97900000Y-67810000D03*
G04 #@! TO.P,U1,27*
G04 #@! TO.N,/RXD0*
X97900000Y-65270000D03*
G04 #@! TO.P,U1,28*
G04 #@! TO.N,/TXD0*
X97900000Y-62730000D03*
G04 #@! TO.P,U1,29*
G04 #@! TO.N,/I2C_SCL*
X97900000Y-60190000D03*
G04 #@! TO.P,U1,30*
G04 #@! TO.N,Net-(U1-Pad30)*
X97900000Y-57650000D03*
G04 #@! TD*
D18*
G04 #@! TO.N,+3V3*
X102300000Y-89600000D03*
G04 #@! TD*
D19*
G04 #@! TO.N,+3V3*
X97900000Y-93210000D02*
X100090000Y-93210000D01*
X100090000Y-93210000D02*
X100700000Y-92600000D01*
X100700000Y-92600000D02*
X100700000Y-91300000D01*
X100700000Y-91300000D02*
X101400000Y-90600000D01*
X105316248Y-91516248D02*
X105316248Y-92632448D01*
X104400000Y-90600000D02*
X105316248Y-91516248D01*
D20*
X102300000Y-90600000D02*
X102300000Y-89600000D01*
D19*
X102300000Y-90600000D02*
X104400000Y-90600000D01*
X101400000Y-90600000D02*
X102300000Y-90600000D01*
D21*
G04 #@! TO.N,/I2C_SDA*
X107856248Y-95172448D02*
X105316248Y-97712448D01*
G04 #@! TD*
D22*
G04 #@! TO.N,GND*
G36*
X71617144Y-58239906D02*
X71910094Y-58532856D01*
X72292853Y-58691400D01*
X72707147Y-58691400D01*
X73089906Y-58532856D01*
X73382856Y-58239906D01*
X73388202Y-58227000D01*
X97011798Y-58227000D01*
X97017144Y-58239906D01*
X97310094Y-58532856D01*
X97692853Y-58691400D01*
X98107147Y-58691400D01*
X98489906Y-58532856D01*
X98782856Y-58239906D01*
X98788202Y-58227000D01*
X111830101Y-58227000D01*
X111830100Y-115477632D01*
X111755296Y-116261672D01*
X111539909Y-116995857D01*
X111189577Y-117676070D01*
X110716940Y-118277764D01*
X110139049Y-118779231D01*
X109476765Y-119162372D01*
X108753976Y-119413367D01*
X107980233Y-119525555D01*
X107794249Y-119530100D01*
X73422368Y-119530100D01*
X72638328Y-119455296D01*
X71904143Y-119239909D01*
X71223930Y-118889577D01*
X70622236Y-118416940D01*
X70120769Y-117839049D01*
X69737628Y-117176765D01*
X69486633Y-116453976D01*
X69374445Y-115680233D01*
X69369900Y-115494249D01*
X69369900Y-115125266D01*
X70433676Y-115125266D01*
X70433676Y-115874734D01*
X70620061Y-116600656D01*
X70981120Y-117257419D01*
X71494166Y-117803758D01*
X72126962Y-118205342D01*
X72839749Y-118436941D01*
X73587737Y-118484000D01*
X74323930Y-118343564D01*
X75002069Y-118024456D01*
X75579543Y-117546727D01*
X76020069Y-116940395D01*
X76295967Y-116243558D01*
X76389900Y-115500000D01*
X76295967Y-114756442D01*
X76244471Y-114626377D01*
X95306670Y-114626377D01*
X95306670Y-115373623D01*
X95592628Y-116063989D01*
X96121011Y-116592372D01*
X96811377Y-116878330D01*
X97558623Y-116878330D01*
X98248989Y-116592372D01*
X98777372Y-116063989D01*
X99063330Y-115373623D01*
X99063330Y-114626377D01*
X106736670Y-114626377D01*
X106736670Y-115373623D01*
X107022628Y-116063989D01*
X107551011Y-116592372D01*
X108241377Y-116878330D01*
X108988623Y-116878330D01*
X109678989Y-116592372D01*
X110207372Y-116063989D01*
X110493330Y-115373623D01*
X110493330Y-114626377D01*
X110207372Y-113936011D01*
X109678989Y-113407628D01*
X108988623Y-113121670D01*
X108241377Y-113121670D01*
X107551011Y-113407628D01*
X107022628Y-113936011D01*
X106736670Y-114626377D01*
X99063330Y-114626377D01*
X98777372Y-113936011D01*
X98248989Y-113407628D01*
X97558623Y-113121670D01*
X96811377Y-113121670D01*
X96121011Y-113407628D01*
X95592628Y-113936011D01*
X95306670Y-114626377D01*
X76244471Y-114626377D01*
X76020069Y-114059605D01*
X75579543Y-113453273D01*
X75002069Y-112975544D01*
X74323930Y-112656436D01*
X73587737Y-112516000D01*
X72839749Y-112563059D01*
X72126962Y-112794658D01*
X71494166Y-113196242D01*
X70981120Y-113742581D01*
X70620061Y-114399344D01*
X70433676Y-115125266D01*
X69369900Y-115125266D01*
X69369900Y-109907745D01*
X71371861Y-109907745D01*
X71445995Y-110153864D01*
X71983223Y-110346965D01*
X72553454Y-110319778D01*
X72954005Y-110153864D01*
X73028139Y-109907745D01*
X72200000Y-109079605D01*
X71371861Y-109907745D01*
X69369900Y-109907745D01*
X69369900Y-108683223D01*
X70753035Y-108683223D01*
X70780222Y-109253454D01*
X70946136Y-109654005D01*
X71192255Y-109728139D01*
X72020395Y-108900000D01*
X72379605Y-108900000D01*
X73207745Y-109728139D01*
X73453864Y-109654005D01*
X73635114Y-109149747D01*
X73784929Y-109511431D01*
X74088569Y-109815071D01*
X74485294Y-109979400D01*
X74914706Y-109979400D01*
X75311431Y-109815071D01*
X75615071Y-109511431D01*
X75779400Y-109114706D01*
X75779400Y-108940096D01*
X82498460Y-108940096D01*
X82498460Y-109809104D01*
X82831015Y-110611963D01*
X83445497Y-111226445D01*
X84248356Y-111559000D01*
X85117364Y-111559000D01*
X85920223Y-111226445D01*
X85965628Y-111181040D01*
X88057285Y-111181040D01*
X88266473Y-111541889D01*
X89203770Y-111919424D01*
X90214197Y-111909533D01*
X91101767Y-111541889D01*
X91310955Y-111181040D01*
X89684120Y-109554205D01*
X88057285Y-111181040D01*
X85965628Y-111181040D01*
X86534705Y-110611963D01*
X86867260Y-109809104D01*
X86867260Y-108940096D01*
X86848270Y-108894250D01*
X87139296Y-108894250D01*
X87149187Y-109904677D01*
X87516831Y-110792247D01*
X87877680Y-111001435D01*
X89504515Y-109374600D01*
X89863725Y-109374600D01*
X91490560Y-111001435D01*
X91851409Y-110792247D01*
X92228944Y-109854950D01*
X92220486Y-108990876D01*
X97114636Y-108990876D01*
X97266176Y-109356751D01*
X97627132Y-109757896D01*
X98114123Y-109990374D01*
X98328000Y-109868447D01*
X98328000Y-108777000D01*
X98582000Y-108777000D01*
X98582000Y-109868447D01*
X98795877Y-109990374D01*
X99282868Y-109757896D01*
X99643824Y-109356751D01*
X99795364Y-108990876D01*
X99672675Y-108777000D01*
X98582000Y-108777000D01*
X98328000Y-108777000D01*
X97237325Y-108777000D01*
X97114636Y-108990876D01*
X92220486Y-108990876D01*
X92219053Y-108844523D01*
X92138480Y-108650000D01*
X99947442Y-108650000D01*
X100027183Y-109050883D01*
X100254265Y-109390735D01*
X100594117Y-109617817D01*
X100893810Y-109677430D01*
X101096190Y-109677430D01*
X101395883Y-109617817D01*
X101735735Y-109390735D01*
X101962817Y-109050883D01*
X102042558Y-108650000D01*
X102487442Y-108650000D01*
X102567183Y-109050883D01*
X102794265Y-109390735D01*
X103134117Y-109617817D01*
X103433810Y-109677430D01*
X103636190Y-109677430D01*
X103935883Y-109617817D01*
X104275735Y-109390735D01*
X104502817Y-109050883D01*
X104582558Y-108650000D01*
X105027442Y-108650000D01*
X105107183Y-109050883D01*
X105334265Y-109390735D01*
X105674117Y-109617817D01*
X105973810Y-109677430D01*
X106176190Y-109677430D01*
X106475883Y-109617817D01*
X106815735Y-109390735D01*
X107042817Y-109050883D01*
X107122558Y-108650000D01*
X107042817Y-108249117D01*
X106815735Y-107909265D01*
X106475883Y-107682183D01*
X106176190Y-107622570D01*
X105973810Y-107622570D01*
X105674117Y-107682183D01*
X105334265Y-107909265D01*
X105107183Y-108249117D01*
X105027442Y-108650000D01*
X104582558Y-108650000D01*
X104502817Y-108249117D01*
X104275735Y-107909265D01*
X103935883Y-107682183D01*
X103636190Y-107622570D01*
X103433810Y-107622570D01*
X103134117Y-107682183D01*
X102794265Y-107909265D01*
X102567183Y-108249117D01*
X102487442Y-108650000D01*
X102042558Y-108650000D01*
X101962817Y-108249117D01*
X101735735Y-107909265D01*
X101395883Y-107682183D01*
X101096190Y-107622570D01*
X100893810Y-107622570D01*
X100594117Y-107682183D01*
X100254265Y-107909265D01*
X100027183Y-108249117D01*
X99947442Y-108650000D01*
X92138480Y-108650000D01*
X91997284Y-108309124D01*
X97114636Y-108309124D01*
X97237325Y-108523000D01*
X98328000Y-108523000D01*
X98328000Y-107431553D01*
X98582000Y-107431553D01*
X98582000Y-108523000D01*
X99672675Y-108523000D01*
X99795364Y-108309124D01*
X99643824Y-107943249D01*
X99282868Y-107542104D01*
X98795877Y-107309626D01*
X98582000Y-107431553D01*
X98328000Y-107431553D01*
X98114123Y-107309626D01*
X97627132Y-107542104D01*
X97266176Y-107943249D01*
X97114636Y-108309124D01*
X91997284Y-108309124D01*
X91851409Y-107956953D01*
X91490560Y-107747765D01*
X89863725Y-109374600D01*
X89504515Y-109374600D01*
X87877680Y-107747765D01*
X87516831Y-107956953D01*
X87139296Y-108894250D01*
X86848270Y-108894250D01*
X86534705Y-108137237D01*
X85965628Y-107568160D01*
X88057285Y-107568160D01*
X89684120Y-109194995D01*
X91310955Y-107568160D01*
X91101767Y-107207311D01*
X90164470Y-106829776D01*
X89154043Y-106839667D01*
X88266473Y-107207311D01*
X88057285Y-107568160D01*
X85965628Y-107568160D01*
X85920223Y-107522755D01*
X85117364Y-107190200D01*
X84248356Y-107190200D01*
X83445497Y-107522755D01*
X82831015Y-108137237D01*
X82498460Y-108940096D01*
X75779400Y-108940096D01*
X75779400Y-108685294D01*
X75615071Y-108288569D01*
X75311431Y-107984929D01*
X74914706Y-107820600D01*
X74485294Y-107820600D01*
X74088569Y-107984929D01*
X73784929Y-108288569D01*
X73625795Y-108672752D01*
X73619778Y-108546546D01*
X73453864Y-108145995D01*
X73207745Y-108071861D01*
X72379605Y-108900000D01*
X72020395Y-108900000D01*
X71192255Y-108071861D01*
X70946136Y-108145995D01*
X70753035Y-108683223D01*
X69369900Y-108683223D01*
X69369900Y-107892255D01*
X71371861Y-107892255D01*
X72200000Y-108720395D01*
X73028139Y-107892255D01*
X72954005Y-107646136D01*
X72416777Y-107453035D01*
X71846546Y-107480222D01*
X71445995Y-107646136D01*
X71371861Y-107892255D01*
X69369900Y-107892255D01*
X69369900Y-106607745D01*
X71371861Y-106607745D01*
X71445995Y-106853864D01*
X71983223Y-107046965D01*
X72553454Y-107019778D01*
X72954005Y-106853864D01*
X73028139Y-106607745D01*
X72200000Y-105779605D01*
X71371861Y-106607745D01*
X69369900Y-106607745D01*
X69369900Y-105383223D01*
X70753035Y-105383223D01*
X70780222Y-105953454D01*
X70946136Y-106354005D01*
X71192255Y-106428139D01*
X72020395Y-105600000D01*
X72379605Y-105600000D01*
X73207745Y-106428139D01*
X73453864Y-106354005D01*
X73635114Y-105849747D01*
X73784929Y-106211431D01*
X74088569Y-106515071D01*
X74485294Y-106679400D01*
X74914706Y-106679400D01*
X75311431Y-106515071D01*
X75375626Y-106450876D01*
X98384636Y-106450876D01*
X98536176Y-106816751D01*
X98897132Y-107217896D01*
X99384123Y-107450374D01*
X99598000Y-107328447D01*
X99598000Y-106237000D01*
X99852000Y-106237000D01*
X99852000Y-107328447D01*
X100065877Y-107450374D01*
X100552868Y-107217896D01*
X100913824Y-106816751D01*
X101065364Y-106450876D01*
X100942675Y-106237000D01*
X99852000Y-106237000D01*
X99598000Y-106237000D01*
X98507325Y-106237000D01*
X98384636Y-106450876D01*
X75375626Y-106450876D01*
X75615071Y-106211431D01*
X75657085Y-106110000D01*
X101217442Y-106110000D01*
X101297183Y-106510883D01*
X101524265Y-106850735D01*
X101864117Y-107077817D01*
X102163810Y-107137430D01*
X102366190Y-107137430D01*
X102665883Y-107077817D01*
X103005735Y-106850735D01*
X103232817Y-106510883D01*
X103312558Y-106110000D01*
X103757442Y-106110000D01*
X103837183Y-106510883D01*
X104064265Y-106850735D01*
X104404117Y-107077817D01*
X104703810Y-107137430D01*
X104906190Y-107137430D01*
X105205883Y-107077817D01*
X105545735Y-106850735D01*
X105772817Y-106510883D01*
X105852558Y-106110000D01*
X106297442Y-106110000D01*
X106377183Y-106510883D01*
X106604265Y-106850735D01*
X106944117Y-107077817D01*
X107243810Y-107137430D01*
X107446190Y-107137430D01*
X107745883Y-107077817D01*
X108085735Y-106850735D01*
X108312817Y-106510883D01*
X108392558Y-106110000D01*
X108312817Y-105709117D01*
X108085735Y-105369265D01*
X107745883Y-105142183D01*
X107446190Y-105082570D01*
X107243810Y-105082570D01*
X106944117Y-105142183D01*
X106604265Y-105369265D01*
X106377183Y-105709117D01*
X106297442Y-106110000D01*
X105852558Y-106110000D01*
X105772817Y-105709117D01*
X105545735Y-105369265D01*
X105205883Y-105142183D01*
X104906190Y-105082570D01*
X104703810Y-105082570D01*
X104404117Y-105142183D01*
X104064265Y-105369265D01*
X103837183Y-105709117D01*
X103757442Y-106110000D01*
X103312558Y-106110000D01*
X103232817Y-105709117D01*
X103005735Y-105369265D01*
X102665883Y-105142183D01*
X102366190Y-105082570D01*
X102163810Y-105082570D01*
X101864117Y-105142183D01*
X101524265Y-105369265D01*
X101297183Y-105709117D01*
X101217442Y-106110000D01*
X75657085Y-106110000D01*
X75779400Y-105814706D01*
X75779400Y-105769124D01*
X98384636Y-105769124D01*
X98507325Y-105983000D01*
X99598000Y-105983000D01*
X99598000Y-104891553D01*
X99852000Y-104891553D01*
X99852000Y-105983000D01*
X100942675Y-105983000D01*
X101065364Y-105769124D01*
X100913824Y-105403249D01*
X100552868Y-105002104D01*
X100065877Y-104769626D01*
X99852000Y-104891553D01*
X99598000Y-104891553D01*
X99384123Y-104769626D01*
X98897132Y-105002104D01*
X98536176Y-105403249D01*
X98384636Y-105769124D01*
X75779400Y-105769124D01*
X75779400Y-105385294D01*
X75615071Y-104988569D01*
X75311431Y-104684929D01*
X74914706Y-104520600D01*
X74485294Y-104520600D01*
X74088569Y-104684929D01*
X73784929Y-104988569D01*
X73625795Y-105372752D01*
X73619778Y-105246546D01*
X73453864Y-104845995D01*
X73207745Y-104771861D01*
X72379605Y-105600000D01*
X72020395Y-105600000D01*
X71192255Y-104771861D01*
X70946136Y-104845995D01*
X70753035Y-105383223D01*
X69369900Y-105383223D01*
X69369900Y-104592255D01*
X71371861Y-104592255D01*
X72200000Y-105420395D01*
X73028139Y-104592255D01*
X72954005Y-104346136D01*
X72416777Y-104153035D01*
X71846546Y-104180222D01*
X71445995Y-104346136D01*
X71371861Y-104592255D01*
X69369900Y-104592255D01*
X69369900Y-103149338D01*
X106414772Y-103149338D01*
X106584603Y-103559372D01*
X106974890Y-103987631D01*
X107499356Y-104233934D01*
X107729248Y-104113267D01*
X107729248Y-102919448D01*
X107983248Y-102919448D01*
X107983248Y-104113267D01*
X108213140Y-104233934D01*
X108737606Y-103987631D01*
X109127893Y-103559372D01*
X109297724Y-103149338D01*
X109176403Y-102919448D01*
X107983248Y-102919448D01*
X107729248Y-102919448D01*
X106536093Y-102919448D01*
X106414772Y-103149338D01*
X69369900Y-103149338D01*
X69369900Y-100252448D01*
X101624722Y-100252448D01*
X101712377Y-100693118D01*
X101961996Y-101066700D01*
X102335578Y-101316319D01*
X102665013Y-101381848D01*
X102887483Y-101381848D01*
X103216918Y-101316319D01*
X103590500Y-101066700D01*
X103840119Y-100693118D01*
X103902512Y-100379450D01*
X103996092Y-100379450D01*
X103874772Y-100609338D01*
X104044603Y-101019372D01*
X104434890Y-101447631D01*
X104959356Y-101693934D01*
X105189248Y-101573267D01*
X105189248Y-100379448D01*
X105443248Y-100379448D01*
X105443248Y-101573267D01*
X105673140Y-101693934D01*
X106197606Y-101447631D01*
X106586248Y-101021177D01*
X106974890Y-101447631D01*
X107134202Y-101522448D01*
X106974890Y-101597265D01*
X106584603Y-102025524D01*
X106414772Y-102435558D01*
X106536093Y-102665448D01*
X107729248Y-102665448D01*
X107729248Y-100379448D01*
X107983248Y-100379448D01*
X107983248Y-102665448D01*
X109176403Y-102665448D01*
X109297724Y-102435558D01*
X109127893Y-102025524D01*
X108737606Y-101597265D01*
X108578294Y-101522448D01*
X108737606Y-101447631D01*
X109127893Y-101019372D01*
X109297724Y-100609338D01*
X109176403Y-100379448D01*
X107983248Y-100379448D01*
X107729248Y-100379448D01*
X105443248Y-100379448D01*
X105189248Y-100379448D01*
X105169248Y-100379448D01*
X105169248Y-100125448D01*
X105189248Y-100125448D01*
X105189248Y-100105448D01*
X105443248Y-100105448D01*
X105443248Y-100125448D01*
X107729248Y-100125448D01*
X107729248Y-100105448D01*
X107983248Y-100105448D01*
X107983248Y-100125448D01*
X109176403Y-100125448D01*
X109297724Y-99895558D01*
X109127893Y-99485524D01*
X108737606Y-99057265D01*
X108213140Y-98810962D01*
X107983250Y-98931628D01*
X107983250Y-98838712D01*
X108296918Y-98776319D01*
X108670500Y-98526700D01*
X108920119Y-98153118D01*
X109007774Y-97712448D01*
X108920119Y-97271778D01*
X108670500Y-96898196D01*
X108296918Y-96648577D01*
X107967483Y-96583048D01*
X107745013Y-96583048D01*
X107415578Y-96648577D01*
X107041996Y-96898196D01*
X106792377Y-97271778D01*
X106704722Y-97712448D01*
X106792377Y-98153118D01*
X107041996Y-98526700D01*
X107415578Y-98776319D01*
X107729246Y-98838712D01*
X107729246Y-98931628D01*
X107499356Y-98810962D01*
X106974890Y-99057265D01*
X106586248Y-99483719D01*
X106197606Y-99057265D01*
X105673140Y-98810962D01*
X105443250Y-98931628D01*
X105443250Y-98838712D01*
X105756918Y-98776319D01*
X106130500Y-98526700D01*
X106380119Y-98153118D01*
X106467774Y-97712448D01*
X106401877Y-97381160D01*
X107524961Y-96258077D01*
X107745013Y-96301848D01*
X107967483Y-96301848D01*
X108296918Y-96236319D01*
X108670500Y-95986700D01*
X108920119Y-95613118D01*
X109007774Y-95172448D01*
X108920119Y-94731778D01*
X108670500Y-94358196D01*
X108296918Y-94108577D01*
X107967483Y-94043048D01*
X107745013Y-94043048D01*
X107415578Y-94108577D01*
X107041996Y-94358196D01*
X106792377Y-94731778D01*
X106704722Y-95172448D01*
X106770619Y-95503735D01*
X105647536Y-96626819D01*
X105427483Y-96583048D01*
X105205013Y-96583048D01*
X104875578Y-96648577D01*
X104501996Y-96898196D01*
X104252377Y-97271778D01*
X104164722Y-97712448D01*
X104252377Y-98153118D01*
X104501996Y-98526700D01*
X104875578Y-98776319D01*
X105189246Y-98838712D01*
X105189246Y-98931628D01*
X104959356Y-98810962D01*
X104434890Y-99057265D01*
X104044603Y-99485524D01*
X103874772Y-99895558D01*
X103996092Y-100125446D01*
X103902512Y-100125446D01*
X103840119Y-99811778D01*
X103590500Y-99438196D01*
X103216918Y-99188577D01*
X102887483Y-99123048D01*
X102665013Y-99123048D01*
X102335578Y-99188577D01*
X101961996Y-99438196D01*
X101712377Y-99811778D01*
X101624722Y-100252448D01*
X69369900Y-100252448D01*
X69369900Y-93002853D01*
X71458600Y-93002853D01*
X71458600Y-93417147D01*
X71617144Y-93799906D01*
X71910094Y-94092856D01*
X72292853Y-94251400D01*
X72707147Y-94251400D01*
X73089906Y-94092856D01*
X73382856Y-93799906D01*
X73541400Y-93417147D01*
X73541400Y-93002853D01*
X96858600Y-93002853D01*
X96858600Y-93417147D01*
X97017144Y-93799906D01*
X97310094Y-94092856D01*
X97692853Y-94251400D01*
X98107147Y-94251400D01*
X98413752Y-94124400D01*
X99999941Y-94124400D01*
X100090000Y-94142314D01*
X100180059Y-94124400D01*
X100180060Y-94124400D01*
X100446781Y-94071346D01*
X100749246Y-93869246D01*
X100800263Y-93792893D01*
X101282895Y-93310262D01*
X101359246Y-93259246D01*
X101561346Y-92956781D01*
X101614400Y-92690060D01*
X101614400Y-92690059D01*
X101632314Y-92600001D01*
X101614400Y-92509942D01*
X101614400Y-91678756D01*
X101778757Y-91514400D01*
X101841664Y-91514400D01*
X101817232Y-91519260D01*
X101724812Y-91581012D01*
X101663060Y-91673432D01*
X101641375Y-91782448D01*
X101641375Y-93482448D01*
X101663060Y-93591464D01*
X101724812Y-93683884D01*
X101817232Y-93745636D01*
X101926248Y-93767321D01*
X102341935Y-93767321D01*
X101894890Y-93977265D01*
X101504603Y-94405524D01*
X101334772Y-94815558D01*
X101456093Y-95045448D01*
X102649248Y-95045448D01*
X102649248Y-95025448D01*
X102903248Y-95025448D01*
X102903248Y-95045448D01*
X102923248Y-95045448D01*
X102923248Y-95299448D01*
X102903248Y-95299448D01*
X102903248Y-95319448D01*
X102649248Y-95319448D01*
X102649248Y-95299448D01*
X101456093Y-95299448D01*
X101334772Y-95529338D01*
X101504603Y-95939372D01*
X101894890Y-96367631D01*
X102419356Y-96613934D01*
X102649246Y-96493268D01*
X102649246Y-96586184D01*
X102335578Y-96648577D01*
X101961996Y-96898196D01*
X101712377Y-97271778D01*
X101624722Y-97712448D01*
X101712377Y-98153118D01*
X101961996Y-98526700D01*
X102335578Y-98776319D01*
X102665013Y-98841848D01*
X102887483Y-98841848D01*
X103216918Y-98776319D01*
X103590500Y-98526700D01*
X103840119Y-98153118D01*
X103927774Y-97712448D01*
X103840119Y-97271778D01*
X103590500Y-96898196D01*
X103216918Y-96648577D01*
X102903250Y-96586184D01*
X102903250Y-96493268D01*
X103133140Y-96613934D01*
X103657606Y-96367631D01*
X104047893Y-95939372D01*
X104217724Y-95529338D01*
X104096404Y-95299450D01*
X104189984Y-95299450D01*
X104252377Y-95613118D01*
X104501996Y-95986700D01*
X104875578Y-96236319D01*
X105205013Y-96301848D01*
X105427483Y-96301848D01*
X105756918Y-96236319D01*
X106130500Y-95986700D01*
X106380119Y-95613118D01*
X106467774Y-95172448D01*
X106380119Y-94731778D01*
X106130500Y-94358196D01*
X105756918Y-94108577D01*
X105427483Y-94043048D01*
X105205013Y-94043048D01*
X104875578Y-94108577D01*
X104501996Y-94358196D01*
X104252377Y-94731778D01*
X104189984Y-95045446D01*
X104096404Y-95045446D01*
X104217724Y-94815558D01*
X104047893Y-94405524D01*
X103657606Y-93977265D01*
X103210561Y-93767321D01*
X103626248Y-93767321D01*
X103735264Y-93745636D01*
X103827684Y-93683884D01*
X103889436Y-93591464D01*
X103911121Y-93482448D01*
X103911121Y-91782448D01*
X103889436Y-91673432D01*
X103827684Y-91581012D01*
X103735264Y-91519260D01*
X103710832Y-91514400D01*
X104021244Y-91514400D01*
X104199280Y-91692436D01*
X104181375Y-91782448D01*
X104181375Y-93482448D01*
X104203060Y-93591464D01*
X104264812Y-93683884D01*
X104357232Y-93745636D01*
X104466248Y-93767321D01*
X106166248Y-93767321D01*
X106275264Y-93745636D01*
X106367684Y-93683884D01*
X106429436Y-93591464D01*
X106451121Y-93482448D01*
X106451121Y-91782448D01*
X106721375Y-91782448D01*
X106721375Y-93482448D01*
X106743060Y-93591464D01*
X106804812Y-93683884D01*
X106897232Y-93745636D01*
X107006248Y-93767321D01*
X108706248Y-93767321D01*
X108815264Y-93745636D01*
X108907684Y-93683884D01*
X108969436Y-93591464D01*
X108991121Y-93482448D01*
X108991121Y-91782448D01*
X108969436Y-91673432D01*
X108907684Y-91581012D01*
X108815264Y-91519260D01*
X108706248Y-91497575D01*
X107006248Y-91497575D01*
X106897232Y-91519260D01*
X106804812Y-91581012D01*
X106743060Y-91673432D01*
X106721375Y-91782448D01*
X106451121Y-91782448D01*
X106429436Y-91673432D01*
X106367684Y-91581012D01*
X106275264Y-91519260D01*
X106248086Y-91513854D01*
X106213845Y-91341715D01*
X106177594Y-91159467D01*
X105975494Y-90857002D01*
X105899143Y-90805986D01*
X105110264Y-90017107D01*
X105059246Y-89940754D01*
X104756781Y-89738654D01*
X104490060Y-89685600D01*
X104490059Y-89685600D01*
X104400000Y-89667686D01*
X104309941Y-89685600D01*
X103087400Y-89685600D01*
X103087400Y-89522448D01*
X103041715Y-89292772D01*
X102867684Y-89032316D01*
X102607228Y-88858285D01*
X102300000Y-88797174D01*
X101992773Y-88858285D01*
X101732317Y-89032316D01*
X101558286Y-89292772D01*
X101512601Y-89522448D01*
X101512601Y-89685600D01*
X101490058Y-89685600D01*
X101399999Y-89667686D01*
X101309940Y-89685600D01*
X101043219Y-89738654D01*
X100740754Y-89940754D01*
X100689738Y-90017105D01*
X100117105Y-90589738D01*
X100040755Y-90640754D01*
X99989740Y-90717104D01*
X99838655Y-90943219D01*
X99767686Y-91300000D01*
X99785601Y-91390063D01*
X99785600Y-92221243D01*
X99711244Y-92295600D01*
X98413752Y-92295600D01*
X98107147Y-92168600D01*
X97692853Y-92168600D01*
X97310094Y-92327144D01*
X97017144Y-92620094D01*
X96858600Y-93002853D01*
X73541400Y-93002853D01*
X73382856Y-92620094D01*
X73089906Y-92327144D01*
X72707147Y-92168600D01*
X72292853Y-92168600D01*
X71910094Y-92327144D01*
X71617144Y-92620094D01*
X71458600Y-93002853D01*
X69369900Y-93002853D01*
X69369900Y-91650213D01*
X71699392Y-91650213D01*
X71768857Y-91892397D01*
X72292302Y-92079144D01*
X72847368Y-92051362D01*
X73231143Y-91892397D01*
X73300608Y-91650213D01*
X97099392Y-91650213D01*
X97168857Y-91892397D01*
X97692302Y-92079144D01*
X98247368Y-92051362D01*
X98631143Y-91892397D01*
X98700608Y-91650213D01*
X97900000Y-90849605D01*
X97099392Y-91650213D01*
X73300608Y-91650213D01*
X72500000Y-90849605D01*
X71699392Y-91650213D01*
X69369900Y-91650213D01*
X69369900Y-90462302D01*
X71090856Y-90462302D01*
X71118638Y-91017368D01*
X71277603Y-91401143D01*
X71519787Y-91470608D01*
X72320395Y-90670000D01*
X72679605Y-90670000D01*
X73480213Y-91470608D01*
X73722397Y-91401143D01*
X73909144Y-90877698D01*
X73888353Y-90462302D01*
X96490856Y-90462302D01*
X96518638Y-91017368D01*
X96677603Y-91401143D01*
X96919787Y-91470608D01*
X97720395Y-90670000D01*
X98079605Y-90670000D01*
X98880213Y-91470608D01*
X99122397Y-91401143D01*
X99309144Y-90877698D01*
X99281362Y-90322632D01*
X99122397Y-89938857D01*
X98880213Y-89869392D01*
X98079605Y-90670000D01*
X97720395Y-90670000D01*
X96919787Y-89869392D01*
X96677603Y-89938857D01*
X96490856Y-90462302D01*
X73888353Y-90462302D01*
X73881362Y-90322632D01*
X73722397Y-89938857D01*
X73480213Y-89869392D01*
X72679605Y-90670000D01*
X72320395Y-90670000D01*
X71519787Y-89869392D01*
X71277603Y-89938857D01*
X71090856Y-90462302D01*
X69369900Y-90462302D01*
X69369900Y-89689787D01*
X71699392Y-89689787D01*
X72500000Y-90490395D01*
X73300608Y-89689787D01*
X97099392Y-89689787D01*
X97900000Y-90490395D01*
X98700608Y-89689787D01*
X98631143Y-89447603D01*
X98107698Y-89260856D01*
X97552632Y-89288638D01*
X97168857Y-89447603D01*
X97099392Y-89689787D01*
X73300608Y-89689787D01*
X73231143Y-89447603D01*
X72707698Y-89260856D01*
X72152632Y-89288638D01*
X71768857Y-89447603D01*
X71699392Y-89689787D01*
X69369900Y-89689787D01*
X69369900Y-87922853D01*
X71458600Y-87922853D01*
X71458600Y-88337147D01*
X71617144Y-88719906D01*
X71910094Y-89012856D01*
X72292853Y-89171400D01*
X72707147Y-89171400D01*
X73089906Y-89012856D01*
X73382856Y-88719906D01*
X73541400Y-88337147D01*
X73541400Y-87922853D01*
X96858600Y-87922853D01*
X96858600Y-88337147D01*
X97017144Y-88719906D01*
X97310094Y-89012856D01*
X97692853Y-89171400D01*
X98107147Y-89171400D01*
X98489906Y-89012856D01*
X98782856Y-88719906D01*
X98941400Y-88337147D01*
X98941400Y-87922853D01*
X98782856Y-87540094D01*
X98489906Y-87247144D01*
X98107147Y-87088600D01*
X97692853Y-87088600D01*
X97310094Y-87247144D01*
X97017144Y-87540094D01*
X96858600Y-87922853D01*
X73541400Y-87922853D01*
X73382856Y-87540094D01*
X73089906Y-87247144D01*
X72707147Y-87088600D01*
X72292853Y-87088600D01*
X71910094Y-87247144D01*
X71617144Y-87540094D01*
X71458600Y-87922853D01*
X69369900Y-87922853D01*
X69369900Y-85382853D01*
X71458600Y-85382853D01*
X71458600Y-85797147D01*
X71617144Y-86179906D01*
X71910094Y-86472856D01*
X72292853Y-86631400D01*
X72707147Y-86631400D01*
X73089906Y-86472856D01*
X73382856Y-86179906D01*
X73541400Y-85797147D01*
X73541400Y-85382853D01*
X96858600Y-85382853D01*
X96858600Y-85797147D01*
X97017144Y-86179906D01*
X97310094Y-86472856D01*
X97692853Y-86631400D01*
X98107147Y-86631400D01*
X98489906Y-86472856D01*
X98782856Y-86179906D01*
X98941400Y-85797147D01*
X98941400Y-85382853D01*
X98834704Y-85125266D01*
X104433676Y-85125266D01*
X104433676Y-85874734D01*
X104620061Y-86600656D01*
X104981120Y-87257419D01*
X105494166Y-87803758D01*
X106126962Y-88205342D01*
X106839749Y-88436941D01*
X107587737Y-88484000D01*
X108323930Y-88343564D01*
X109002069Y-88024456D01*
X109579543Y-87546727D01*
X110020069Y-86940395D01*
X110295967Y-86243558D01*
X110389900Y-85500000D01*
X110295967Y-84756442D01*
X110020069Y-84059605D01*
X109579543Y-83453273D01*
X109002069Y-82975544D01*
X108323930Y-82656436D01*
X107587737Y-82516000D01*
X106839749Y-82563059D01*
X106126962Y-82794658D01*
X105494166Y-83196242D01*
X104981120Y-83742581D01*
X104620061Y-84399344D01*
X104433676Y-85125266D01*
X98834704Y-85125266D01*
X98782856Y-85000094D01*
X98489906Y-84707144D01*
X98107147Y-84548600D01*
X97692853Y-84548600D01*
X97310094Y-84707144D01*
X97017144Y-85000094D01*
X96858600Y-85382853D01*
X73541400Y-85382853D01*
X73382856Y-85000094D01*
X73089906Y-84707144D01*
X72707147Y-84548600D01*
X72292853Y-84548600D01*
X71910094Y-84707144D01*
X71617144Y-85000094D01*
X71458600Y-85382853D01*
X69369900Y-85382853D01*
X69369900Y-82842853D01*
X71458600Y-82842853D01*
X71458600Y-83257147D01*
X71617144Y-83639906D01*
X71910094Y-83932856D01*
X72292853Y-84091400D01*
X72707147Y-84091400D01*
X73089906Y-83932856D01*
X73382856Y-83639906D01*
X73541400Y-83257147D01*
X73541400Y-82842853D01*
X96858600Y-82842853D01*
X96858600Y-83257147D01*
X97017144Y-83639906D01*
X97310094Y-83932856D01*
X97692853Y-84091400D01*
X98107147Y-84091400D01*
X98489906Y-83932856D01*
X98782856Y-83639906D01*
X98941400Y-83257147D01*
X98941400Y-82842853D01*
X98782856Y-82460094D01*
X98489906Y-82167144D01*
X98107147Y-82008600D01*
X97692853Y-82008600D01*
X97310094Y-82167144D01*
X97017144Y-82460094D01*
X96858600Y-82842853D01*
X73541400Y-82842853D01*
X73382856Y-82460094D01*
X73089906Y-82167144D01*
X72707147Y-82008600D01*
X72292853Y-82008600D01*
X71910094Y-82167144D01*
X71617144Y-82460094D01*
X71458600Y-82842853D01*
X69369900Y-82842853D01*
X69369900Y-80302853D01*
X71458600Y-80302853D01*
X71458600Y-80717147D01*
X71617144Y-81099906D01*
X71910094Y-81392856D01*
X72292853Y-81551400D01*
X72707147Y-81551400D01*
X73089906Y-81392856D01*
X73382856Y-81099906D01*
X73541400Y-80717147D01*
X73541400Y-80302853D01*
X96858600Y-80302853D01*
X96858600Y-80717147D01*
X97017144Y-81099906D01*
X97310094Y-81392856D01*
X97692853Y-81551400D01*
X98107147Y-81551400D01*
X98489906Y-81392856D01*
X98782856Y-81099906D01*
X98941400Y-80717147D01*
X98941400Y-80302853D01*
X98782856Y-79920094D01*
X98489906Y-79627144D01*
X98107147Y-79468600D01*
X97692853Y-79468600D01*
X97310094Y-79627144D01*
X97017144Y-79920094D01*
X96858600Y-80302853D01*
X73541400Y-80302853D01*
X73382856Y-79920094D01*
X73089906Y-79627144D01*
X72707147Y-79468600D01*
X72292853Y-79468600D01*
X71910094Y-79627144D01*
X71617144Y-79920094D01*
X71458600Y-80302853D01*
X69369900Y-80302853D01*
X69369900Y-77762853D01*
X71458600Y-77762853D01*
X71458600Y-78177147D01*
X71617144Y-78559906D01*
X71910094Y-78852856D01*
X72292853Y-79011400D01*
X72707147Y-79011400D01*
X73089906Y-78852856D01*
X73382856Y-78559906D01*
X73541400Y-78177147D01*
X73541400Y-77762853D01*
X96858600Y-77762853D01*
X96858600Y-78177147D01*
X97017144Y-78559906D01*
X97310094Y-78852856D01*
X97692853Y-79011400D01*
X98107147Y-79011400D01*
X98489906Y-78852856D01*
X98782856Y-78559906D01*
X98941400Y-78177147D01*
X98941400Y-77762853D01*
X98791102Y-77400000D01*
X102021413Y-77400000D01*
X102097426Y-77782143D01*
X102313892Y-78106108D01*
X102637857Y-78322574D01*
X102923540Y-78379400D01*
X103116460Y-78379400D01*
X103402143Y-78322574D01*
X103726108Y-78106108D01*
X103942574Y-77782143D01*
X104018587Y-77400000D01*
X103979836Y-77205185D01*
X107120600Y-77205185D01*
X107120600Y-77594815D01*
X107269704Y-77954786D01*
X107545214Y-78230296D01*
X107905185Y-78379400D01*
X108294815Y-78379400D01*
X108654786Y-78230296D01*
X108930296Y-77954786D01*
X109079400Y-77594815D01*
X109079400Y-77205185D01*
X108930296Y-76845214D01*
X108654786Y-76569704D01*
X108294815Y-76420600D01*
X107905185Y-76420600D01*
X107545214Y-76569704D01*
X107269704Y-76845214D01*
X107120600Y-77205185D01*
X103979836Y-77205185D01*
X103942574Y-77017857D01*
X103726108Y-76693892D01*
X103402143Y-76477426D01*
X103116460Y-76420600D01*
X102923540Y-76420600D01*
X102637857Y-76477426D01*
X102313892Y-76693892D01*
X102097426Y-77017857D01*
X102021413Y-77400000D01*
X98791102Y-77400000D01*
X98782856Y-77380094D01*
X98489906Y-77087144D01*
X98107147Y-76928600D01*
X97692853Y-76928600D01*
X97310094Y-77087144D01*
X97017144Y-77380094D01*
X96858600Y-77762853D01*
X73541400Y-77762853D01*
X73382856Y-77380094D01*
X73089906Y-77087144D01*
X72707147Y-76928600D01*
X72292853Y-76928600D01*
X71910094Y-77087144D01*
X71617144Y-77380094D01*
X71458600Y-77762853D01*
X69369900Y-77762853D01*
X69369900Y-75222853D01*
X71458600Y-75222853D01*
X71458600Y-75637147D01*
X71617144Y-76019906D01*
X71910094Y-76312856D01*
X72292853Y-76471400D01*
X72707147Y-76471400D01*
X73089906Y-76312856D01*
X73382856Y-76019906D01*
X73541400Y-75637147D01*
X73541400Y-75222853D01*
X96858600Y-75222853D01*
X96858600Y-75637147D01*
X97017144Y-76019906D01*
X97310094Y-76312856D01*
X97692853Y-76471400D01*
X98107147Y-76471400D01*
X98489906Y-76312856D01*
X98782856Y-76019906D01*
X98941400Y-75637147D01*
X98941400Y-75222853D01*
X98782856Y-74840094D01*
X98742762Y-74800000D01*
X102021413Y-74800000D01*
X102097426Y-75182143D01*
X102313892Y-75506108D01*
X102637857Y-75722574D01*
X102923540Y-75779400D01*
X103116460Y-75779400D01*
X103402143Y-75722574D01*
X103726108Y-75506108D01*
X103942574Y-75182143D01*
X104018587Y-74800000D01*
X103979836Y-74605185D01*
X107120600Y-74605185D01*
X107120600Y-74994815D01*
X107269704Y-75354786D01*
X107545214Y-75630296D01*
X107905185Y-75779400D01*
X108294815Y-75779400D01*
X108654786Y-75630296D01*
X108930296Y-75354786D01*
X109079400Y-74994815D01*
X109079400Y-74605185D01*
X108930296Y-74245214D01*
X108654786Y-73969704D01*
X108294815Y-73820600D01*
X107905185Y-73820600D01*
X107545214Y-73969704D01*
X107269704Y-74245214D01*
X107120600Y-74605185D01*
X103979836Y-74605185D01*
X103942574Y-74417857D01*
X103726108Y-74093892D01*
X103402143Y-73877426D01*
X103116460Y-73820600D01*
X102923540Y-73820600D01*
X102637857Y-73877426D01*
X102313892Y-74093892D01*
X102097426Y-74417857D01*
X102021413Y-74800000D01*
X98742762Y-74800000D01*
X98489906Y-74547144D01*
X98107147Y-74388600D01*
X97692853Y-74388600D01*
X97310094Y-74547144D01*
X97017144Y-74840094D01*
X96858600Y-75222853D01*
X73541400Y-75222853D01*
X73382856Y-74840094D01*
X73089906Y-74547144D01*
X72707147Y-74388600D01*
X72292853Y-74388600D01*
X71910094Y-74547144D01*
X71617144Y-74840094D01*
X71458600Y-75222853D01*
X69369900Y-75222853D01*
X69369900Y-72682853D01*
X71458600Y-72682853D01*
X71458600Y-73097147D01*
X71617144Y-73479906D01*
X71910094Y-73772856D01*
X72292853Y-73931400D01*
X72707147Y-73931400D01*
X73089906Y-73772856D01*
X73382856Y-73479906D01*
X73541400Y-73097147D01*
X73541400Y-72682853D01*
X96858600Y-72682853D01*
X96858600Y-73097147D01*
X97017144Y-73479906D01*
X97310094Y-73772856D01*
X97692853Y-73931400D01*
X98107147Y-73931400D01*
X98489906Y-73772856D01*
X98782856Y-73479906D01*
X98941400Y-73097147D01*
X98941400Y-72682853D01*
X98782856Y-72300094D01*
X98489906Y-72007144D01*
X98107147Y-71848600D01*
X97692853Y-71848600D01*
X97310094Y-72007144D01*
X97017144Y-72300094D01*
X96858600Y-72682853D01*
X73541400Y-72682853D01*
X73382856Y-72300094D01*
X73089906Y-72007144D01*
X72707147Y-71848600D01*
X72292853Y-71848600D01*
X71910094Y-72007144D01*
X71617144Y-72300094D01*
X71458600Y-72682853D01*
X69369900Y-72682853D01*
X69369900Y-70142853D01*
X71458600Y-70142853D01*
X71458600Y-70557147D01*
X71617144Y-70939906D01*
X71910094Y-71232856D01*
X72292853Y-71391400D01*
X72707147Y-71391400D01*
X73089906Y-71232856D01*
X73382856Y-70939906D01*
X73541400Y-70557147D01*
X73541400Y-70142853D01*
X96858600Y-70142853D01*
X96858600Y-70557147D01*
X97017144Y-70939906D01*
X97310094Y-71232856D01*
X97692853Y-71391400D01*
X98107147Y-71391400D01*
X98489906Y-71232856D01*
X98782856Y-70939906D01*
X98941400Y-70557147D01*
X98941400Y-70142853D01*
X98782856Y-69760094D01*
X98489906Y-69467144D01*
X98107147Y-69308600D01*
X97692853Y-69308600D01*
X97310094Y-69467144D01*
X97017144Y-69760094D01*
X96858600Y-70142853D01*
X73541400Y-70142853D01*
X73382856Y-69760094D01*
X73089906Y-69467144D01*
X72707147Y-69308600D01*
X72292853Y-69308600D01*
X71910094Y-69467144D01*
X71617144Y-69760094D01*
X71458600Y-70142853D01*
X69369900Y-70142853D01*
X69369900Y-67602853D01*
X71458600Y-67602853D01*
X71458600Y-68017147D01*
X71617144Y-68399906D01*
X71910094Y-68692856D01*
X72292853Y-68851400D01*
X72707147Y-68851400D01*
X73089906Y-68692856D01*
X73382856Y-68399906D01*
X73541400Y-68017147D01*
X73541400Y-67602853D01*
X96858600Y-67602853D01*
X96858600Y-68017147D01*
X97017144Y-68399906D01*
X97310094Y-68692856D01*
X97692853Y-68851400D01*
X98107147Y-68851400D01*
X98489906Y-68692856D01*
X98782856Y-68399906D01*
X98941400Y-68017147D01*
X98941400Y-67602853D01*
X98782856Y-67220094D01*
X98489906Y-66927144D01*
X98107147Y-66768600D01*
X97692853Y-66768600D01*
X97310094Y-66927144D01*
X97017144Y-67220094D01*
X96858600Y-67602853D01*
X73541400Y-67602853D01*
X73382856Y-67220094D01*
X73089906Y-66927144D01*
X72707147Y-66768600D01*
X72292853Y-66768600D01*
X71910094Y-66927144D01*
X71617144Y-67220094D01*
X71458600Y-67602853D01*
X69369900Y-67602853D01*
X69369900Y-65062853D01*
X71458600Y-65062853D01*
X71458600Y-65477147D01*
X71617144Y-65859906D01*
X71910094Y-66152856D01*
X72292853Y-66311400D01*
X72707147Y-66311400D01*
X73089906Y-66152856D01*
X73382856Y-65859906D01*
X73541400Y-65477147D01*
X73541400Y-65062853D01*
X96858600Y-65062853D01*
X96858600Y-65477147D01*
X97017144Y-65859906D01*
X97310094Y-66152856D01*
X97692853Y-66311400D01*
X98107147Y-66311400D01*
X98489906Y-66152856D01*
X98782856Y-65859906D01*
X98941400Y-65477147D01*
X98941400Y-65062853D01*
X98782856Y-64680094D01*
X98489906Y-64387144D01*
X98107147Y-64228600D01*
X97692853Y-64228600D01*
X97310094Y-64387144D01*
X97017144Y-64680094D01*
X96858600Y-65062853D01*
X73541400Y-65062853D01*
X73382856Y-64680094D01*
X73089906Y-64387144D01*
X72707147Y-64228600D01*
X72292853Y-64228600D01*
X71910094Y-64387144D01*
X71617144Y-64680094D01*
X71458600Y-65062853D01*
X69369900Y-65062853D01*
X69369900Y-62522853D01*
X71458600Y-62522853D01*
X71458600Y-62937147D01*
X71617144Y-63319906D01*
X71910094Y-63612856D01*
X72292853Y-63771400D01*
X72707147Y-63771400D01*
X73089906Y-63612856D01*
X73382856Y-63319906D01*
X73541400Y-62937147D01*
X73541400Y-62522853D01*
X96858600Y-62522853D01*
X96858600Y-62937147D01*
X97017144Y-63319906D01*
X97310094Y-63612856D01*
X97692853Y-63771400D01*
X98107147Y-63771400D01*
X98489906Y-63612856D01*
X98782856Y-63319906D01*
X98941400Y-62937147D01*
X98941400Y-62522853D01*
X98782856Y-62140094D01*
X98489906Y-61847144D01*
X98107147Y-61688600D01*
X97692853Y-61688600D01*
X97310094Y-61847144D01*
X97017144Y-62140094D01*
X96858600Y-62522853D01*
X73541400Y-62522853D01*
X73382856Y-62140094D01*
X73089906Y-61847144D01*
X72707147Y-61688600D01*
X72292853Y-61688600D01*
X71910094Y-61847144D01*
X71617144Y-62140094D01*
X71458600Y-62522853D01*
X69369900Y-62522853D01*
X69369900Y-59982853D01*
X71458600Y-59982853D01*
X71458600Y-60397147D01*
X71617144Y-60779906D01*
X71910094Y-61072856D01*
X72292853Y-61231400D01*
X72707147Y-61231400D01*
X73089906Y-61072856D01*
X73382856Y-60779906D01*
X73541400Y-60397147D01*
X73541400Y-59982853D01*
X96858600Y-59982853D01*
X96858600Y-60397147D01*
X97017144Y-60779906D01*
X97310094Y-61072856D01*
X97692853Y-61231400D01*
X98107147Y-61231400D01*
X98489906Y-61072856D01*
X98782856Y-60779906D01*
X98941400Y-60397147D01*
X98941400Y-59982853D01*
X98782856Y-59600094D01*
X98489906Y-59307144D01*
X98107147Y-59148600D01*
X97692853Y-59148600D01*
X97310094Y-59307144D01*
X97017144Y-59600094D01*
X96858600Y-59982853D01*
X73541400Y-59982853D01*
X73382856Y-59600094D01*
X73089906Y-59307144D01*
X72707147Y-59148600D01*
X72292853Y-59148600D01*
X71910094Y-59307144D01*
X71617144Y-59600094D01*
X71458600Y-59982853D01*
X69369900Y-59982853D01*
X69369900Y-58227000D01*
X71611798Y-58227000D01*
X71617144Y-58239906D01*
X71617144Y-58239906D01*
G37*
X71617144Y-58239906D02*
X71910094Y-58532856D01*
X72292853Y-58691400D01*
X72707147Y-58691400D01*
X73089906Y-58532856D01*
X73382856Y-58239906D01*
X73388202Y-58227000D01*
X97011798Y-58227000D01*
X97017144Y-58239906D01*
X97310094Y-58532856D01*
X97692853Y-58691400D01*
X98107147Y-58691400D01*
X98489906Y-58532856D01*
X98782856Y-58239906D01*
X98788202Y-58227000D01*
X111830101Y-58227000D01*
X111830100Y-115477632D01*
X111755296Y-116261672D01*
X111539909Y-116995857D01*
X111189577Y-117676070D01*
X110716940Y-118277764D01*
X110139049Y-118779231D01*
X109476765Y-119162372D01*
X108753976Y-119413367D01*
X107980233Y-119525555D01*
X107794249Y-119530100D01*
X73422368Y-119530100D01*
X72638328Y-119455296D01*
X71904143Y-119239909D01*
X71223930Y-118889577D01*
X70622236Y-118416940D01*
X70120769Y-117839049D01*
X69737628Y-117176765D01*
X69486633Y-116453976D01*
X69374445Y-115680233D01*
X69369900Y-115494249D01*
X69369900Y-115125266D01*
X70433676Y-115125266D01*
X70433676Y-115874734D01*
X70620061Y-116600656D01*
X70981120Y-117257419D01*
X71494166Y-117803758D01*
X72126962Y-118205342D01*
X72839749Y-118436941D01*
X73587737Y-118484000D01*
X74323930Y-118343564D01*
X75002069Y-118024456D01*
X75579543Y-117546727D01*
X76020069Y-116940395D01*
X76295967Y-116243558D01*
X76389900Y-115500000D01*
X76295967Y-114756442D01*
X76244471Y-114626377D01*
X95306670Y-114626377D01*
X95306670Y-115373623D01*
X95592628Y-116063989D01*
X96121011Y-116592372D01*
X96811377Y-116878330D01*
X97558623Y-116878330D01*
X98248989Y-116592372D01*
X98777372Y-116063989D01*
X99063330Y-115373623D01*
X99063330Y-114626377D01*
X106736670Y-114626377D01*
X106736670Y-115373623D01*
X107022628Y-116063989D01*
X107551011Y-116592372D01*
X108241377Y-116878330D01*
X108988623Y-116878330D01*
X109678989Y-116592372D01*
X110207372Y-116063989D01*
X110493330Y-115373623D01*
X110493330Y-114626377D01*
X110207372Y-113936011D01*
X109678989Y-113407628D01*
X108988623Y-113121670D01*
X108241377Y-113121670D01*
X107551011Y-113407628D01*
X107022628Y-113936011D01*
X106736670Y-114626377D01*
X99063330Y-114626377D01*
X98777372Y-113936011D01*
X98248989Y-113407628D01*
X97558623Y-113121670D01*
X96811377Y-113121670D01*
X96121011Y-113407628D01*
X95592628Y-113936011D01*
X95306670Y-114626377D01*
X76244471Y-114626377D01*
X76020069Y-114059605D01*
X75579543Y-113453273D01*
X75002069Y-112975544D01*
X74323930Y-112656436D01*
X73587737Y-112516000D01*
X72839749Y-112563059D01*
X72126962Y-112794658D01*
X71494166Y-113196242D01*
X70981120Y-113742581D01*
X70620061Y-114399344D01*
X70433676Y-115125266D01*
X69369900Y-115125266D01*
X69369900Y-109907745D01*
X71371861Y-109907745D01*
X71445995Y-110153864D01*
X71983223Y-110346965D01*
X72553454Y-110319778D01*
X72954005Y-110153864D01*
X73028139Y-109907745D01*
X72200000Y-109079605D01*
X71371861Y-109907745D01*
X69369900Y-109907745D01*
X69369900Y-108683223D01*
X70753035Y-108683223D01*
X70780222Y-109253454D01*
X70946136Y-109654005D01*
X71192255Y-109728139D01*
X72020395Y-108900000D01*
X72379605Y-108900000D01*
X73207745Y-109728139D01*
X73453864Y-109654005D01*
X73635114Y-109149747D01*
X73784929Y-109511431D01*
X74088569Y-109815071D01*
X74485294Y-109979400D01*
X74914706Y-109979400D01*
X75311431Y-109815071D01*
X75615071Y-109511431D01*
X75779400Y-109114706D01*
X75779400Y-108940096D01*
X82498460Y-108940096D01*
X82498460Y-109809104D01*
X82831015Y-110611963D01*
X83445497Y-111226445D01*
X84248356Y-111559000D01*
X85117364Y-111559000D01*
X85920223Y-111226445D01*
X85965628Y-111181040D01*
X88057285Y-111181040D01*
X88266473Y-111541889D01*
X89203770Y-111919424D01*
X90214197Y-111909533D01*
X91101767Y-111541889D01*
X91310955Y-111181040D01*
X89684120Y-109554205D01*
X88057285Y-111181040D01*
X85965628Y-111181040D01*
X86534705Y-110611963D01*
X86867260Y-109809104D01*
X86867260Y-108940096D01*
X86848270Y-108894250D01*
X87139296Y-108894250D01*
X87149187Y-109904677D01*
X87516831Y-110792247D01*
X87877680Y-111001435D01*
X89504515Y-109374600D01*
X89863725Y-109374600D01*
X91490560Y-111001435D01*
X91851409Y-110792247D01*
X92228944Y-109854950D01*
X92220486Y-108990876D01*
X97114636Y-108990876D01*
X97266176Y-109356751D01*
X97627132Y-109757896D01*
X98114123Y-109990374D01*
X98328000Y-109868447D01*
X98328000Y-108777000D01*
X98582000Y-108777000D01*
X98582000Y-109868447D01*
X98795877Y-109990374D01*
X99282868Y-109757896D01*
X99643824Y-109356751D01*
X99795364Y-108990876D01*
X99672675Y-108777000D01*
X98582000Y-108777000D01*
X98328000Y-108777000D01*
X97237325Y-108777000D01*
X97114636Y-108990876D01*
X92220486Y-108990876D01*
X92219053Y-108844523D01*
X92138480Y-108650000D01*
X99947442Y-108650000D01*
X100027183Y-109050883D01*
X100254265Y-109390735D01*
X100594117Y-109617817D01*
X100893810Y-109677430D01*
X101096190Y-109677430D01*
X101395883Y-109617817D01*
X101735735Y-109390735D01*
X101962817Y-109050883D01*
X102042558Y-108650000D01*
X102487442Y-108650000D01*
X102567183Y-109050883D01*
X102794265Y-109390735D01*
X103134117Y-109617817D01*
X103433810Y-109677430D01*
X103636190Y-109677430D01*
X103935883Y-109617817D01*
X104275735Y-109390735D01*
X104502817Y-109050883D01*
X104582558Y-108650000D01*
X105027442Y-108650000D01*
X105107183Y-109050883D01*
X105334265Y-109390735D01*
X105674117Y-109617817D01*
X105973810Y-109677430D01*
X106176190Y-109677430D01*
X106475883Y-109617817D01*
X106815735Y-109390735D01*
X107042817Y-109050883D01*
X107122558Y-108650000D01*
X107042817Y-108249117D01*
X106815735Y-107909265D01*
X106475883Y-107682183D01*
X106176190Y-107622570D01*
X105973810Y-107622570D01*
X105674117Y-107682183D01*
X105334265Y-107909265D01*
X105107183Y-108249117D01*
X105027442Y-108650000D01*
X104582558Y-108650000D01*
X104502817Y-108249117D01*
X104275735Y-107909265D01*
X103935883Y-107682183D01*
X103636190Y-107622570D01*
X103433810Y-107622570D01*
X103134117Y-107682183D01*
X102794265Y-107909265D01*
X102567183Y-108249117D01*
X102487442Y-108650000D01*
X102042558Y-108650000D01*
X101962817Y-108249117D01*
X101735735Y-107909265D01*
X101395883Y-107682183D01*
X101096190Y-107622570D01*
X100893810Y-107622570D01*
X100594117Y-107682183D01*
X100254265Y-107909265D01*
X100027183Y-108249117D01*
X99947442Y-108650000D01*
X92138480Y-108650000D01*
X91997284Y-108309124D01*
X97114636Y-108309124D01*
X97237325Y-108523000D01*
X98328000Y-108523000D01*
X98328000Y-107431553D01*
X98582000Y-107431553D01*
X98582000Y-108523000D01*
X99672675Y-108523000D01*
X99795364Y-108309124D01*
X99643824Y-107943249D01*
X99282868Y-107542104D01*
X98795877Y-107309626D01*
X98582000Y-107431553D01*
X98328000Y-107431553D01*
X98114123Y-107309626D01*
X97627132Y-107542104D01*
X97266176Y-107943249D01*
X97114636Y-108309124D01*
X91997284Y-108309124D01*
X91851409Y-107956953D01*
X91490560Y-107747765D01*
X89863725Y-109374600D01*
X89504515Y-109374600D01*
X87877680Y-107747765D01*
X87516831Y-107956953D01*
X87139296Y-108894250D01*
X86848270Y-108894250D01*
X86534705Y-108137237D01*
X85965628Y-107568160D01*
X88057285Y-107568160D01*
X89684120Y-109194995D01*
X91310955Y-107568160D01*
X91101767Y-107207311D01*
X90164470Y-106829776D01*
X89154043Y-106839667D01*
X88266473Y-107207311D01*
X88057285Y-107568160D01*
X85965628Y-107568160D01*
X85920223Y-107522755D01*
X85117364Y-107190200D01*
X84248356Y-107190200D01*
X83445497Y-107522755D01*
X82831015Y-108137237D01*
X82498460Y-108940096D01*
X75779400Y-108940096D01*
X75779400Y-108685294D01*
X75615071Y-108288569D01*
X75311431Y-107984929D01*
X74914706Y-107820600D01*
X74485294Y-107820600D01*
X74088569Y-107984929D01*
X73784929Y-108288569D01*
X73625795Y-108672752D01*
X73619778Y-108546546D01*
X73453864Y-108145995D01*
X73207745Y-108071861D01*
X72379605Y-108900000D01*
X72020395Y-108900000D01*
X71192255Y-108071861D01*
X70946136Y-108145995D01*
X70753035Y-108683223D01*
X69369900Y-108683223D01*
X69369900Y-107892255D01*
X71371861Y-107892255D01*
X72200000Y-108720395D01*
X73028139Y-107892255D01*
X72954005Y-107646136D01*
X72416777Y-107453035D01*
X71846546Y-107480222D01*
X71445995Y-107646136D01*
X71371861Y-107892255D01*
X69369900Y-107892255D01*
X69369900Y-106607745D01*
X71371861Y-106607745D01*
X71445995Y-106853864D01*
X71983223Y-107046965D01*
X72553454Y-107019778D01*
X72954005Y-106853864D01*
X73028139Y-106607745D01*
X72200000Y-105779605D01*
X71371861Y-106607745D01*
X69369900Y-106607745D01*
X69369900Y-105383223D01*
X70753035Y-105383223D01*
X70780222Y-105953454D01*
X70946136Y-106354005D01*
X71192255Y-106428139D01*
X72020395Y-105600000D01*
X72379605Y-105600000D01*
X73207745Y-106428139D01*
X73453864Y-106354005D01*
X73635114Y-105849747D01*
X73784929Y-106211431D01*
X74088569Y-106515071D01*
X74485294Y-106679400D01*
X74914706Y-106679400D01*
X75311431Y-106515071D01*
X75375626Y-106450876D01*
X98384636Y-106450876D01*
X98536176Y-106816751D01*
X98897132Y-107217896D01*
X99384123Y-107450374D01*
X99598000Y-107328447D01*
X99598000Y-106237000D01*
X99852000Y-106237000D01*
X99852000Y-107328447D01*
X100065877Y-107450374D01*
X100552868Y-107217896D01*
X100913824Y-106816751D01*
X101065364Y-106450876D01*
X100942675Y-106237000D01*
X99852000Y-106237000D01*
X99598000Y-106237000D01*
X98507325Y-106237000D01*
X98384636Y-106450876D01*
X75375626Y-106450876D01*
X75615071Y-106211431D01*
X75657085Y-106110000D01*
X101217442Y-106110000D01*
X101297183Y-106510883D01*
X101524265Y-106850735D01*
X101864117Y-107077817D01*
X102163810Y-107137430D01*
X102366190Y-107137430D01*
X102665883Y-107077817D01*
X103005735Y-106850735D01*
X103232817Y-106510883D01*
X103312558Y-106110000D01*
X103757442Y-106110000D01*
X103837183Y-106510883D01*
X104064265Y-106850735D01*
X104404117Y-107077817D01*
X104703810Y-107137430D01*
X104906190Y-107137430D01*
X105205883Y-107077817D01*
X105545735Y-106850735D01*
X105772817Y-106510883D01*
X105852558Y-106110000D01*
X106297442Y-106110000D01*
X106377183Y-106510883D01*
X106604265Y-106850735D01*
X106944117Y-107077817D01*
X107243810Y-107137430D01*
X107446190Y-107137430D01*
X107745883Y-107077817D01*
X108085735Y-106850735D01*
X108312817Y-106510883D01*
X108392558Y-106110000D01*
X108312817Y-105709117D01*
X108085735Y-105369265D01*
X107745883Y-105142183D01*
X107446190Y-105082570D01*
X107243810Y-105082570D01*
X106944117Y-105142183D01*
X106604265Y-105369265D01*
X106377183Y-105709117D01*
X106297442Y-106110000D01*
X105852558Y-106110000D01*
X105772817Y-105709117D01*
X105545735Y-105369265D01*
X105205883Y-105142183D01*
X104906190Y-105082570D01*
X104703810Y-105082570D01*
X104404117Y-105142183D01*
X104064265Y-105369265D01*
X103837183Y-105709117D01*
X103757442Y-106110000D01*
X103312558Y-106110000D01*
X103232817Y-105709117D01*
X103005735Y-105369265D01*
X102665883Y-105142183D01*
X102366190Y-105082570D01*
X102163810Y-105082570D01*
X101864117Y-105142183D01*
X101524265Y-105369265D01*
X101297183Y-105709117D01*
X101217442Y-106110000D01*
X75657085Y-106110000D01*
X75779400Y-105814706D01*
X75779400Y-105769124D01*
X98384636Y-105769124D01*
X98507325Y-105983000D01*
X99598000Y-105983000D01*
X99598000Y-104891553D01*
X99852000Y-104891553D01*
X99852000Y-105983000D01*
X100942675Y-105983000D01*
X101065364Y-105769124D01*
X100913824Y-105403249D01*
X100552868Y-105002104D01*
X100065877Y-104769626D01*
X99852000Y-104891553D01*
X99598000Y-104891553D01*
X99384123Y-104769626D01*
X98897132Y-105002104D01*
X98536176Y-105403249D01*
X98384636Y-105769124D01*
X75779400Y-105769124D01*
X75779400Y-105385294D01*
X75615071Y-104988569D01*
X75311431Y-104684929D01*
X74914706Y-104520600D01*
X74485294Y-104520600D01*
X74088569Y-104684929D01*
X73784929Y-104988569D01*
X73625795Y-105372752D01*
X73619778Y-105246546D01*
X73453864Y-104845995D01*
X73207745Y-104771861D01*
X72379605Y-105600000D01*
X72020395Y-105600000D01*
X71192255Y-104771861D01*
X70946136Y-104845995D01*
X70753035Y-105383223D01*
X69369900Y-105383223D01*
X69369900Y-104592255D01*
X71371861Y-104592255D01*
X72200000Y-105420395D01*
X73028139Y-104592255D01*
X72954005Y-104346136D01*
X72416777Y-104153035D01*
X71846546Y-104180222D01*
X71445995Y-104346136D01*
X71371861Y-104592255D01*
X69369900Y-104592255D01*
X69369900Y-103149338D01*
X106414772Y-103149338D01*
X106584603Y-103559372D01*
X106974890Y-103987631D01*
X107499356Y-104233934D01*
X107729248Y-104113267D01*
X107729248Y-102919448D01*
X107983248Y-102919448D01*
X107983248Y-104113267D01*
X108213140Y-104233934D01*
X108737606Y-103987631D01*
X109127893Y-103559372D01*
X109297724Y-103149338D01*
X109176403Y-102919448D01*
X107983248Y-102919448D01*
X107729248Y-102919448D01*
X106536093Y-102919448D01*
X106414772Y-103149338D01*
X69369900Y-103149338D01*
X69369900Y-100252448D01*
X101624722Y-100252448D01*
X101712377Y-100693118D01*
X101961996Y-101066700D01*
X102335578Y-101316319D01*
X102665013Y-101381848D01*
X102887483Y-101381848D01*
X103216918Y-101316319D01*
X103590500Y-101066700D01*
X103840119Y-100693118D01*
X103902512Y-100379450D01*
X103996092Y-100379450D01*
X103874772Y-100609338D01*
X104044603Y-101019372D01*
X104434890Y-101447631D01*
X104959356Y-101693934D01*
X105189248Y-101573267D01*
X105189248Y-100379448D01*
X105443248Y-100379448D01*
X105443248Y-101573267D01*
X105673140Y-101693934D01*
X106197606Y-101447631D01*
X106586248Y-101021177D01*
X106974890Y-101447631D01*
X107134202Y-101522448D01*
X106974890Y-101597265D01*
X106584603Y-102025524D01*
X106414772Y-102435558D01*
X106536093Y-102665448D01*
X107729248Y-102665448D01*
X107729248Y-100379448D01*
X107983248Y-100379448D01*
X107983248Y-102665448D01*
X109176403Y-102665448D01*
X109297724Y-102435558D01*
X109127893Y-102025524D01*
X108737606Y-101597265D01*
X108578294Y-101522448D01*
X108737606Y-101447631D01*
X109127893Y-101019372D01*
X109297724Y-100609338D01*
X109176403Y-100379448D01*
X107983248Y-100379448D01*
X107729248Y-100379448D01*
X105443248Y-100379448D01*
X105189248Y-100379448D01*
X105169248Y-100379448D01*
X105169248Y-100125448D01*
X105189248Y-100125448D01*
X105189248Y-100105448D01*
X105443248Y-100105448D01*
X105443248Y-100125448D01*
X107729248Y-100125448D01*
X107729248Y-100105448D01*
X107983248Y-100105448D01*
X107983248Y-100125448D01*
X109176403Y-100125448D01*
X109297724Y-99895558D01*
X109127893Y-99485524D01*
X108737606Y-99057265D01*
X108213140Y-98810962D01*
X107983250Y-98931628D01*
X107983250Y-98838712D01*
X108296918Y-98776319D01*
X108670500Y-98526700D01*
X108920119Y-98153118D01*
X109007774Y-97712448D01*
X108920119Y-97271778D01*
X108670500Y-96898196D01*
X108296918Y-96648577D01*
X107967483Y-96583048D01*
X107745013Y-96583048D01*
X107415578Y-96648577D01*
X107041996Y-96898196D01*
X106792377Y-97271778D01*
X106704722Y-97712448D01*
X106792377Y-98153118D01*
X107041996Y-98526700D01*
X107415578Y-98776319D01*
X107729246Y-98838712D01*
X107729246Y-98931628D01*
X107499356Y-98810962D01*
X106974890Y-99057265D01*
X106586248Y-99483719D01*
X106197606Y-99057265D01*
X105673140Y-98810962D01*
X105443250Y-98931628D01*
X105443250Y-98838712D01*
X105756918Y-98776319D01*
X106130500Y-98526700D01*
X106380119Y-98153118D01*
X106467774Y-97712448D01*
X106401877Y-97381160D01*
X107524961Y-96258077D01*
X107745013Y-96301848D01*
X107967483Y-96301848D01*
X108296918Y-96236319D01*
X108670500Y-95986700D01*
X108920119Y-95613118D01*
X109007774Y-95172448D01*
X108920119Y-94731778D01*
X108670500Y-94358196D01*
X108296918Y-94108577D01*
X107967483Y-94043048D01*
X107745013Y-94043048D01*
X107415578Y-94108577D01*
X107041996Y-94358196D01*
X106792377Y-94731778D01*
X106704722Y-95172448D01*
X106770619Y-95503735D01*
X105647536Y-96626819D01*
X105427483Y-96583048D01*
X105205013Y-96583048D01*
X104875578Y-96648577D01*
X104501996Y-96898196D01*
X104252377Y-97271778D01*
X104164722Y-97712448D01*
X104252377Y-98153118D01*
X104501996Y-98526700D01*
X104875578Y-98776319D01*
X105189246Y-98838712D01*
X105189246Y-98931628D01*
X104959356Y-98810962D01*
X104434890Y-99057265D01*
X104044603Y-99485524D01*
X103874772Y-99895558D01*
X103996092Y-100125446D01*
X103902512Y-100125446D01*
X103840119Y-99811778D01*
X103590500Y-99438196D01*
X103216918Y-99188577D01*
X102887483Y-99123048D01*
X102665013Y-99123048D01*
X102335578Y-99188577D01*
X101961996Y-99438196D01*
X101712377Y-99811778D01*
X101624722Y-100252448D01*
X69369900Y-100252448D01*
X69369900Y-93002853D01*
X71458600Y-93002853D01*
X71458600Y-93417147D01*
X71617144Y-93799906D01*
X71910094Y-94092856D01*
X72292853Y-94251400D01*
X72707147Y-94251400D01*
X73089906Y-94092856D01*
X73382856Y-93799906D01*
X73541400Y-93417147D01*
X73541400Y-93002853D01*
X96858600Y-93002853D01*
X96858600Y-93417147D01*
X97017144Y-93799906D01*
X97310094Y-94092856D01*
X97692853Y-94251400D01*
X98107147Y-94251400D01*
X98413752Y-94124400D01*
X99999941Y-94124400D01*
X100090000Y-94142314D01*
X100180059Y-94124400D01*
X100180060Y-94124400D01*
X100446781Y-94071346D01*
X100749246Y-93869246D01*
X100800263Y-93792893D01*
X101282895Y-93310262D01*
X101359246Y-93259246D01*
X101561346Y-92956781D01*
X101614400Y-92690060D01*
X101614400Y-92690059D01*
X101632314Y-92600001D01*
X101614400Y-92509942D01*
X101614400Y-91678756D01*
X101778757Y-91514400D01*
X101841664Y-91514400D01*
X101817232Y-91519260D01*
X101724812Y-91581012D01*
X101663060Y-91673432D01*
X101641375Y-91782448D01*
X101641375Y-93482448D01*
X101663060Y-93591464D01*
X101724812Y-93683884D01*
X101817232Y-93745636D01*
X101926248Y-93767321D01*
X102341935Y-93767321D01*
X101894890Y-93977265D01*
X101504603Y-94405524D01*
X101334772Y-94815558D01*
X101456093Y-95045448D01*
X102649248Y-95045448D01*
X102649248Y-95025448D01*
X102903248Y-95025448D01*
X102903248Y-95045448D01*
X102923248Y-95045448D01*
X102923248Y-95299448D01*
X102903248Y-95299448D01*
X102903248Y-95319448D01*
X102649248Y-95319448D01*
X102649248Y-95299448D01*
X101456093Y-95299448D01*
X101334772Y-95529338D01*
X101504603Y-95939372D01*
X101894890Y-96367631D01*
X102419356Y-96613934D01*
X102649246Y-96493268D01*
X102649246Y-96586184D01*
X102335578Y-96648577D01*
X101961996Y-96898196D01*
X101712377Y-97271778D01*
X101624722Y-97712448D01*
X101712377Y-98153118D01*
X101961996Y-98526700D01*
X102335578Y-98776319D01*
X102665013Y-98841848D01*
X102887483Y-98841848D01*
X103216918Y-98776319D01*
X103590500Y-98526700D01*
X103840119Y-98153118D01*
X103927774Y-97712448D01*
X103840119Y-97271778D01*
X103590500Y-96898196D01*
X103216918Y-96648577D01*
X102903250Y-96586184D01*
X102903250Y-96493268D01*
X103133140Y-96613934D01*
X103657606Y-96367631D01*
X104047893Y-95939372D01*
X104217724Y-95529338D01*
X104096404Y-95299450D01*
X104189984Y-95299450D01*
X104252377Y-95613118D01*
X104501996Y-95986700D01*
X104875578Y-96236319D01*
X105205013Y-96301848D01*
X105427483Y-96301848D01*
X105756918Y-96236319D01*
X106130500Y-95986700D01*
X106380119Y-95613118D01*
X106467774Y-95172448D01*
X106380119Y-94731778D01*
X106130500Y-94358196D01*
X105756918Y-94108577D01*
X105427483Y-94043048D01*
X105205013Y-94043048D01*
X104875578Y-94108577D01*
X104501996Y-94358196D01*
X104252377Y-94731778D01*
X104189984Y-95045446D01*
X104096404Y-95045446D01*
X104217724Y-94815558D01*
X104047893Y-94405524D01*
X103657606Y-93977265D01*
X103210561Y-93767321D01*
X103626248Y-93767321D01*
X103735264Y-93745636D01*
X103827684Y-93683884D01*
X103889436Y-93591464D01*
X103911121Y-93482448D01*
X103911121Y-91782448D01*
X103889436Y-91673432D01*
X103827684Y-91581012D01*
X103735264Y-91519260D01*
X103710832Y-91514400D01*
X104021244Y-91514400D01*
X104199280Y-91692436D01*
X104181375Y-91782448D01*
X104181375Y-93482448D01*
X104203060Y-93591464D01*
X104264812Y-93683884D01*
X104357232Y-93745636D01*
X104466248Y-93767321D01*
X106166248Y-93767321D01*
X106275264Y-93745636D01*
X106367684Y-93683884D01*
X106429436Y-93591464D01*
X106451121Y-93482448D01*
X106451121Y-91782448D01*
X106721375Y-91782448D01*
X106721375Y-93482448D01*
X106743060Y-93591464D01*
X106804812Y-93683884D01*
X106897232Y-93745636D01*
X107006248Y-93767321D01*
X108706248Y-93767321D01*
X108815264Y-93745636D01*
X108907684Y-93683884D01*
X108969436Y-93591464D01*
X108991121Y-93482448D01*
X108991121Y-91782448D01*
X108969436Y-91673432D01*
X108907684Y-91581012D01*
X108815264Y-91519260D01*
X108706248Y-91497575D01*
X107006248Y-91497575D01*
X106897232Y-91519260D01*
X106804812Y-91581012D01*
X106743060Y-91673432D01*
X106721375Y-91782448D01*
X106451121Y-91782448D01*
X106429436Y-91673432D01*
X106367684Y-91581012D01*
X106275264Y-91519260D01*
X106248086Y-91513854D01*
X106213845Y-91341715D01*
X106177594Y-91159467D01*
X105975494Y-90857002D01*
X105899143Y-90805986D01*
X105110264Y-90017107D01*
X105059246Y-89940754D01*
X104756781Y-89738654D01*
X104490060Y-89685600D01*
X104490059Y-89685600D01*
X104400000Y-89667686D01*
X104309941Y-89685600D01*
X103087400Y-89685600D01*
X103087400Y-89522448D01*
X103041715Y-89292772D01*
X102867684Y-89032316D01*
X102607228Y-88858285D01*
X102300000Y-88797174D01*
X101992773Y-88858285D01*
X101732317Y-89032316D01*
X101558286Y-89292772D01*
X101512601Y-89522448D01*
X101512601Y-89685600D01*
X101490058Y-89685600D01*
X101399999Y-89667686D01*
X101309940Y-89685600D01*
X101043219Y-89738654D01*
X100740754Y-89940754D01*
X100689738Y-90017105D01*
X100117105Y-90589738D01*
X100040755Y-90640754D01*
X99989740Y-90717104D01*
X99838655Y-90943219D01*
X99767686Y-91300000D01*
X99785601Y-91390063D01*
X99785600Y-92221243D01*
X99711244Y-92295600D01*
X98413752Y-92295600D01*
X98107147Y-92168600D01*
X97692853Y-92168600D01*
X97310094Y-92327144D01*
X97017144Y-92620094D01*
X96858600Y-93002853D01*
X73541400Y-93002853D01*
X73382856Y-92620094D01*
X73089906Y-92327144D01*
X72707147Y-92168600D01*
X72292853Y-92168600D01*
X71910094Y-92327144D01*
X71617144Y-92620094D01*
X71458600Y-93002853D01*
X69369900Y-93002853D01*
X69369900Y-91650213D01*
X71699392Y-91650213D01*
X71768857Y-91892397D01*
X72292302Y-92079144D01*
X72847368Y-92051362D01*
X73231143Y-91892397D01*
X73300608Y-91650213D01*
X97099392Y-91650213D01*
X97168857Y-91892397D01*
X97692302Y-92079144D01*
X98247368Y-92051362D01*
X98631143Y-91892397D01*
X98700608Y-91650213D01*
X97900000Y-90849605D01*
X97099392Y-91650213D01*
X73300608Y-91650213D01*
X72500000Y-90849605D01*
X71699392Y-91650213D01*
X69369900Y-91650213D01*
X69369900Y-90462302D01*
X71090856Y-90462302D01*
X71118638Y-91017368D01*
X71277603Y-91401143D01*
X71519787Y-91470608D01*
X72320395Y-90670000D01*
X72679605Y-90670000D01*
X73480213Y-91470608D01*
X73722397Y-91401143D01*
X73909144Y-90877698D01*
X73888353Y-90462302D01*
X96490856Y-90462302D01*
X96518638Y-91017368D01*
X96677603Y-91401143D01*
X96919787Y-91470608D01*
X97720395Y-90670000D01*
X98079605Y-90670000D01*
X98880213Y-91470608D01*
X99122397Y-91401143D01*
X99309144Y-90877698D01*
X99281362Y-90322632D01*
X99122397Y-89938857D01*
X98880213Y-89869392D01*
X98079605Y-90670000D01*
X97720395Y-90670000D01*
X96919787Y-89869392D01*
X96677603Y-89938857D01*
X96490856Y-90462302D01*
X73888353Y-90462302D01*
X73881362Y-90322632D01*
X73722397Y-89938857D01*
X73480213Y-89869392D01*
X72679605Y-90670000D01*
X72320395Y-90670000D01*
X71519787Y-89869392D01*
X71277603Y-89938857D01*
X71090856Y-90462302D01*
X69369900Y-90462302D01*
X69369900Y-89689787D01*
X71699392Y-89689787D01*
X72500000Y-90490395D01*
X73300608Y-89689787D01*
X97099392Y-89689787D01*
X97900000Y-90490395D01*
X98700608Y-89689787D01*
X98631143Y-89447603D01*
X98107698Y-89260856D01*
X97552632Y-89288638D01*
X97168857Y-89447603D01*
X97099392Y-89689787D01*
X73300608Y-89689787D01*
X73231143Y-89447603D01*
X72707698Y-89260856D01*
X72152632Y-89288638D01*
X71768857Y-89447603D01*
X71699392Y-89689787D01*
X69369900Y-89689787D01*
X69369900Y-87922853D01*
X71458600Y-87922853D01*
X71458600Y-88337147D01*
X71617144Y-88719906D01*
X71910094Y-89012856D01*
X72292853Y-89171400D01*
X72707147Y-89171400D01*
X73089906Y-89012856D01*
X73382856Y-88719906D01*
X73541400Y-88337147D01*
X73541400Y-87922853D01*
X96858600Y-87922853D01*
X96858600Y-88337147D01*
X97017144Y-88719906D01*
X97310094Y-89012856D01*
X97692853Y-89171400D01*
X98107147Y-89171400D01*
X98489906Y-89012856D01*
X98782856Y-88719906D01*
X98941400Y-88337147D01*
X98941400Y-87922853D01*
X98782856Y-87540094D01*
X98489906Y-87247144D01*
X98107147Y-87088600D01*
X97692853Y-87088600D01*
X97310094Y-87247144D01*
X97017144Y-87540094D01*
X96858600Y-87922853D01*
X73541400Y-87922853D01*
X73382856Y-87540094D01*
X73089906Y-87247144D01*
X72707147Y-87088600D01*
X72292853Y-87088600D01*
X71910094Y-87247144D01*
X71617144Y-87540094D01*
X71458600Y-87922853D01*
X69369900Y-87922853D01*
X69369900Y-85382853D01*
X71458600Y-85382853D01*
X71458600Y-85797147D01*
X71617144Y-86179906D01*
X71910094Y-86472856D01*
X72292853Y-86631400D01*
X72707147Y-86631400D01*
X73089906Y-86472856D01*
X73382856Y-86179906D01*
X73541400Y-85797147D01*
X73541400Y-85382853D01*
X96858600Y-85382853D01*
X96858600Y-85797147D01*
X97017144Y-86179906D01*
X97310094Y-86472856D01*
X97692853Y-86631400D01*
X98107147Y-86631400D01*
X98489906Y-86472856D01*
X98782856Y-86179906D01*
X98941400Y-85797147D01*
X98941400Y-85382853D01*
X98834704Y-85125266D01*
X104433676Y-85125266D01*
X104433676Y-85874734D01*
X104620061Y-86600656D01*
X104981120Y-87257419D01*
X105494166Y-87803758D01*
X106126962Y-88205342D01*
X106839749Y-88436941D01*
X107587737Y-88484000D01*
X108323930Y-88343564D01*
X109002069Y-88024456D01*
X109579543Y-87546727D01*
X110020069Y-86940395D01*
X110295967Y-86243558D01*
X110389900Y-85500000D01*
X110295967Y-84756442D01*
X110020069Y-84059605D01*
X109579543Y-83453273D01*
X109002069Y-82975544D01*
X108323930Y-82656436D01*
X107587737Y-82516000D01*
X106839749Y-82563059D01*
X106126962Y-82794658D01*
X105494166Y-83196242D01*
X104981120Y-83742581D01*
X104620061Y-84399344D01*
X104433676Y-85125266D01*
X98834704Y-85125266D01*
X98782856Y-85000094D01*
X98489906Y-84707144D01*
X98107147Y-84548600D01*
X97692853Y-84548600D01*
X97310094Y-84707144D01*
X97017144Y-85000094D01*
X96858600Y-85382853D01*
X73541400Y-85382853D01*
X73382856Y-85000094D01*
X73089906Y-84707144D01*
X72707147Y-84548600D01*
X72292853Y-84548600D01*
X71910094Y-84707144D01*
X71617144Y-85000094D01*
X71458600Y-85382853D01*
X69369900Y-85382853D01*
X69369900Y-82842853D01*
X71458600Y-82842853D01*
X71458600Y-83257147D01*
X71617144Y-83639906D01*
X71910094Y-83932856D01*
X72292853Y-84091400D01*
X72707147Y-84091400D01*
X73089906Y-83932856D01*
X73382856Y-83639906D01*
X73541400Y-83257147D01*
X73541400Y-82842853D01*
X96858600Y-82842853D01*
X96858600Y-83257147D01*
X97017144Y-83639906D01*
X97310094Y-83932856D01*
X97692853Y-84091400D01*
X98107147Y-84091400D01*
X98489906Y-83932856D01*
X98782856Y-83639906D01*
X98941400Y-83257147D01*
X98941400Y-82842853D01*
X98782856Y-82460094D01*
X98489906Y-82167144D01*
X98107147Y-82008600D01*
X97692853Y-82008600D01*
X97310094Y-82167144D01*
X97017144Y-82460094D01*
X96858600Y-82842853D01*
X73541400Y-82842853D01*
X73382856Y-82460094D01*
X73089906Y-82167144D01*
X72707147Y-82008600D01*
X72292853Y-82008600D01*
X71910094Y-82167144D01*
X71617144Y-82460094D01*
X71458600Y-82842853D01*
X69369900Y-82842853D01*
X69369900Y-80302853D01*
X71458600Y-80302853D01*
X71458600Y-80717147D01*
X71617144Y-81099906D01*
X71910094Y-81392856D01*
X72292853Y-81551400D01*
X72707147Y-81551400D01*
X73089906Y-81392856D01*
X73382856Y-81099906D01*
X73541400Y-80717147D01*
X73541400Y-80302853D01*
X96858600Y-80302853D01*
X96858600Y-80717147D01*
X97017144Y-81099906D01*
X97310094Y-81392856D01*
X97692853Y-81551400D01*
X98107147Y-81551400D01*
X98489906Y-81392856D01*
X98782856Y-81099906D01*
X98941400Y-80717147D01*
X98941400Y-80302853D01*
X98782856Y-79920094D01*
X98489906Y-79627144D01*
X98107147Y-79468600D01*
X97692853Y-79468600D01*
X97310094Y-79627144D01*
X97017144Y-79920094D01*
X96858600Y-80302853D01*
X73541400Y-80302853D01*
X73382856Y-79920094D01*
X73089906Y-79627144D01*
X72707147Y-79468600D01*
X72292853Y-79468600D01*
X71910094Y-79627144D01*
X71617144Y-79920094D01*
X71458600Y-80302853D01*
X69369900Y-80302853D01*
X69369900Y-77762853D01*
X71458600Y-77762853D01*
X71458600Y-78177147D01*
X71617144Y-78559906D01*
X71910094Y-78852856D01*
X72292853Y-79011400D01*
X72707147Y-79011400D01*
X73089906Y-78852856D01*
X73382856Y-78559906D01*
X73541400Y-78177147D01*
X73541400Y-77762853D01*
X96858600Y-77762853D01*
X96858600Y-78177147D01*
X97017144Y-78559906D01*
X97310094Y-78852856D01*
X97692853Y-79011400D01*
X98107147Y-79011400D01*
X98489906Y-78852856D01*
X98782856Y-78559906D01*
X98941400Y-78177147D01*
X98941400Y-77762853D01*
X98791102Y-77400000D01*
X102021413Y-77400000D01*
X102097426Y-77782143D01*
X102313892Y-78106108D01*
X102637857Y-78322574D01*
X102923540Y-78379400D01*
X103116460Y-78379400D01*
X103402143Y-78322574D01*
X103726108Y-78106108D01*
X103942574Y-77782143D01*
X104018587Y-77400000D01*
X103979836Y-77205185D01*
X107120600Y-77205185D01*
X107120600Y-77594815D01*
X107269704Y-77954786D01*
X107545214Y-78230296D01*
X107905185Y-78379400D01*
X108294815Y-78379400D01*
X108654786Y-78230296D01*
X108930296Y-77954786D01*
X109079400Y-77594815D01*
X109079400Y-77205185D01*
X108930296Y-76845214D01*
X108654786Y-76569704D01*
X108294815Y-76420600D01*
X107905185Y-76420600D01*
X107545214Y-76569704D01*
X107269704Y-76845214D01*
X107120600Y-77205185D01*
X103979836Y-77205185D01*
X103942574Y-77017857D01*
X103726108Y-76693892D01*
X103402143Y-76477426D01*
X103116460Y-76420600D01*
X102923540Y-76420600D01*
X102637857Y-76477426D01*
X102313892Y-76693892D01*
X102097426Y-77017857D01*
X102021413Y-77400000D01*
X98791102Y-77400000D01*
X98782856Y-77380094D01*
X98489906Y-77087144D01*
X98107147Y-76928600D01*
X97692853Y-76928600D01*
X97310094Y-77087144D01*
X97017144Y-77380094D01*
X96858600Y-77762853D01*
X73541400Y-77762853D01*
X73382856Y-77380094D01*
X73089906Y-77087144D01*
X72707147Y-76928600D01*
X72292853Y-76928600D01*
X71910094Y-77087144D01*
X71617144Y-77380094D01*
X71458600Y-77762853D01*
X69369900Y-77762853D01*
X69369900Y-75222853D01*
X71458600Y-75222853D01*
X71458600Y-75637147D01*
X71617144Y-76019906D01*
X71910094Y-76312856D01*
X72292853Y-76471400D01*
X72707147Y-76471400D01*
X73089906Y-76312856D01*
X73382856Y-76019906D01*
X73541400Y-75637147D01*
X73541400Y-75222853D01*
X96858600Y-75222853D01*
X96858600Y-75637147D01*
X97017144Y-76019906D01*
X97310094Y-76312856D01*
X97692853Y-76471400D01*
X98107147Y-76471400D01*
X98489906Y-76312856D01*
X98782856Y-76019906D01*
X98941400Y-75637147D01*
X98941400Y-75222853D01*
X98782856Y-74840094D01*
X98742762Y-74800000D01*
X102021413Y-74800000D01*
X102097426Y-75182143D01*
X102313892Y-75506108D01*
X102637857Y-75722574D01*
X102923540Y-75779400D01*
X103116460Y-75779400D01*
X103402143Y-75722574D01*
X103726108Y-75506108D01*
X103942574Y-75182143D01*
X104018587Y-74800000D01*
X103979836Y-74605185D01*
X107120600Y-74605185D01*
X107120600Y-74994815D01*
X107269704Y-75354786D01*
X107545214Y-75630296D01*
X107905185Y-75779400D01*
X108294815Y-75779400D01*
X108654786Y-75630296D01*
X108930296Y-75354786D01*
X109079400Y-74994815D01*
X109079400Y-74605185D01*
X108930296Y-74245214D01*
X108654786Y-73969704D01*
X108294815Y-73820600D01*
X107905185Y-73820600D01*
X107545214Y-73969704D01*
X107269704Y-74245214D01*
X107120600Y-74605185D01*
X103979836Y-74605185D01*
X103942574Y-74417857D01*
X103726108Y-74093892D01*
X103402143Y-73877426D01*
X103116460Y-73820600D01*
X102923540Y-73820600D01*
X102637857Y-73877426D01*
X102313892Y-74093892D01*
X102097426Y-74417857D01*
X102021413Y-74800000D01*
X98742762Y-74800000D01*
X98489906Y-74547144D01*
X98107147Y-74388600D01*
X97692853Y-74388600D01*
X97310094Y-74547144D01*
X97017144Y-74840094D01*
X96858600Y-75222853D01*
X73541400Y-75222853D01*
X73382856Y-74840094D01*
X73089906Y-74547144D01*
X72707147Y-74388600D01*
X72292853Y-74388600D01*
X71910094Y-74547144D01*
X71617144Y-74840094D01*
X71458600Y-75222853D01*
X69369900Y-75222853D01*
X69369900Y-72682853D01*
X71458600Y-72682853D01*
X71458600Y-73097147D01*
X71617144Y-73479906D01*
X71910094Y-73772856D01*
X72292853Y-73931400D01*
X72707147Y-73931400D01*
X73089906Y-73772856D01*
X73382856Y-73479906D01*
X73541400Y-73097147D01*
X73541400Y-72682853D01*
X96858600Y-72682853D01*
X96858600Y-73097147D01*
X97017144Y-73479906D01*
X97310094Y-73772856D01*
X97692853Y-73931400D01*
X98107147Y-73931400D01*
X98489906Y-73772856D01*
X98782856Y-73479906D01*
X98941400Y-73097147D01*
X98941400Y-72682853D01*
X98782856Y-72300094D01*
X98489906Y-72007144D01*
X98107147Y-71848600D01*
X97692853Y-71848600D01*
X97310094Y-72007144D01*
X97017144Y-72300094D01*
X96858600Y-72682853D01*
X73541400Y-72682853D01*
X73382856Y-72300094D01*
X73089906Y-72007144D01*
X72707147Y-71848600D01*
X72292853Y-71848600D01*
X71910094Y-72007144D01*
X71617144Y-72300094D01*
X71458600Y-72682853D01*
X69369900Y-72682853D01*
X69369900Y-70142853D01*
X71458600Y-70142853D01*
X71458600Y-70557147D01*
X71617144Y-70939906D01*
X71910094Y-71232856D01*
X72292853Y-71391400D01*
X72707147Y-71391400D01*
X73089906Y-71232856D01*
X73382856Y-70939906D01*
X73541400Y-70557147D01*
X73541400Y-70142853D01*
X96858600Y-70142853D01*
X96858600Y-70557147D01*
X97017144Y-70939906D01*
X97310094Y-71232856D01*
X97692853Y-71391400D01*
X98107147Y-71391400D01*
X98489906Y-71232856D01*
X98782856Y-70939906D01*
X98941400Y-70557147D01*
X98941400Y-70142853D01*
X98782856Y-69760094D01*
X98489906Y-69467144D01*
X98107147Y-69308600D01*
X97692853Y-69308600D01*
X97310094Y-69467144D01*
X97017144Y-69760094D01*
X96858600Y-70142853D01*
X73541400Y-70142853D01*
X73382856Y-69760094D01*
X73089906Y-69467144D01*
X72707147Y-69308600D01*
X72292853Y-69308600D01*
X71910094Y-69467144D01*
X71617144Y-69760094D01*
X71458600Y-70142853D01*
X69369900Y-70142853D01*
X69369900Y-67602853D01*
X71458600Y-67602853D01*
X71458600Y-68017147D01*
X71617144Y-68399906D01*
X71910094Y-68692856D01*
X72292853Y-68851400D01*
X72707147Y-68851400D01*
X73089906Y-68692856D01*
X73382856Y-68399906D01*
X73541400Y-68017147D01*
X73541400Y-67602853D01*
X96858600Y-67602853D01*
X96858600Y-68017147D01*
X97017144Y-68399906D01*
X97310094Y-68692856D01*
X97692853Y-68851400D01*
X98107147Y-68851400D01*
X98489906Y-68692856D01*
X98782856Y-68399906D01*
X98941400Y-68017147D01*
X98941400Y-67602853D01*
X98782856Y-67220094D01*
X98489906Y-66927144D01*
X98107147Y-66768600D01*
X97692853Y-66768600D01*
X97310094Y-66927144D01*
X97017144Y-67220094D01*
X96858600Y-67602853D01*
X73541400Y-67602853D01*
X73382856Y-67220094D01*
X73089906Y-66927144D01*
X72707147Y-66768600D01*
X72292853Y-66768600D01*
X71910094Y-66927144D01*
X71617144Y-67220094D01*
X71458600Y-67602853D01*
X69369900Y-67602853D01*
X69369900Y-65062853D01*
X71458600Y-65062853D01*
X71458600Y-65477147D01*
X71617144Y-65859906D01*
X71910094Y-66152856D01*
X72292853Y-66311400D01*
X72707147Y-66311400D01*
X73089906Y-66152856D01*
X73382856Y-65859906D01*
X73541400Y-65477147D01*
X73541400Y-65062853D01*
X96858600Y-65062853D01*
X96858600Y-65477147D01*
X97017144Y-65859906D01*
X97310094Y-66152856D01*
X97692853Y-66311400D01*
X98107147Y-66311400D01*
X98489906Y-66152856D01*
X98782856Y-65859906D01*
X98941400Y-65477147D01*
X98941400Y-65062853D01*
X98782856Y-64680094D01*
X98489906Y-64387144D01*
X98107147Y-64228600D01*
X97692853Y-64228600D01*
X97310094Y-64387144D01*
X97017144Y-64680094D01*
X96858600Y-65062853D01*
X73541400Y-65062853D01*
X73382856Y-64680094D01*
X73089906Y-64387144D01*
X72707147Y-64228600D01*
X72292853Y-64228600D01*
X71910094Y-64387144D01*
X71617144Y-64680094D01*
X71458600Y-65062853D01*
X69369900Y-65062853D01*
X69369900Y-62522853D01*
X71458600Y-62522853D01*
X71458600Y-62937147D01*
X71617144Y-63319906D01*
X71910094Y-63612856D01*
X72292853Y-63771400D01*
X72707147Y-63771400D01*
X73089906Y-63612856D01*
X73382856Y-63319906D01*
X73541400Y-62937147D01*
X73541400Y-62522853D01*
X96858600Y-62522853D01*
X96858600Y-62937147D01*
X97017144Y-63319906D01*
X97310094Y-63612856D01*
X97692853Y-63771400D01*
X98107147Y-63771400D01*
X98489906Y-63612856D01*
X98782856Y-63319906D01*
X98941400Y-62937147D01*
X98941400Y-62522853D01*
X98782856Y-62140094D01*
X98489906Y-61847144D01*
X98107147Y-61688600D01*
X97692853Y-61688600D01*
X97310094Y-61847144D01*
X97017144Y-62140094D01*
X96858600Y-62522853D01*
X73541400Y-62522853D01*
X73382856Y-62140094D01*
X73089906Y-61847144D01*
X72707147Y-61688600D01*
X72292853Y-61688600D01*
X71910094Y-61847144D01*
X71617144Y-62140094D01*
X71458600Y-62522853D01*
X69369900Y-62522853D01*
X69369900Y-59982853D01*
X71458600Y-59982853D01*
X71458600Y-60397147D01*
X71617144Y-60779906D01*
X71910094Y-61072856D01*
X72292853Y-61231400D01*
X72707147Y-61231400D01*
X73089906Y-61072856D01*
X73382856Y-60779906D01*
X73541400Y-60397147D01*
X73541400Y-59982853D01*
X96858600Y-59982853D01*
X96858600Y-60397147D01*
X97017144Y-60779906D01*
X97310094Y-61072856D01*
X97692853Y-61231400D01*
X98107147Y-61231400D01*
X98489906Y-61072856D01*
X98782856Y-60779906D01*
X98941400Y-60397147D01*
X98941400Y-59982853D01*
X98782856Y-59600094D01*
X98489906Y-59307144D01*
X98107147Y-59148600D01*
X97692853Y-59148600D01*
X97310094Y-59307144D01*
X97017144Y-59600094D01*
X96858600Y-59982853D01*
X73541400Y-59982853D01*
X73382856Y-59600094D01*
X73089906Y-59307144D01*
X72707147Y-59148600D01*
X72292853Y-59148600D01*
X71910094Y-59307144D01*
X71617144Y-59600094D01*
X71458600Y-59982853D01*
X69369900Y-59982853D01*
X69369900Y-58227000D01*
X71611798Y-58227000D01*
X71617144Y-58239906D01*
G04 #@! TD*
M02*
